<svg width="93" height="93" viewBox="0 0 93 93" fill="none" xmlns="http://www.w3.org/2000/svg">
<path d="M30.063 60.3047V26.8828H6.17578V60.3047C6.17578 62.3111 7.80219 63.9375 9.80859 63.9375H31.3541C30.641 63.9375 30.063 62.3111 30.063 60.3047Z" fill="#89AADB"/>
<path d="M56.3979 26.8828V60.3047C56.3979 62.3111 55.82 63.9375 55.1072 63.9375H76.6523C78.6587 63.9375 80.2851 62.3111 80.2851 60.3047V26.8828H56.3979Z" fill="#4B67B0"/>
<path d="M56.398 60.3047V26.8828H30.063V60.3047C30.063 62.3111 30.641 63.9375 31.3541 63.9375H55.1072C55.82 63.9375 56.398 62.3111 56.398 60.3047Z" fill="#6287C5"/>
<path d="M31.3541 20.3438H9.80859C7.80219 20.3438 6.17578 21.9702 6.17578 23.9766V26.8828H30.063V23.9766C30.063 21.9702 30.641 20.3438 31.3541 20.3438Z" fill="#EF7F72"/>
<path d="M76.6524 20.3438H55.1069C55.82 20.3438 56.3976 21.9702 56.3976 23.9766V26.8828H80.2852V23.9766C80.2852 21.9702 78.6588 20.3438 76.6524 20.3438Z" fill="#E8383B"/>
<path d="M55.1069 20.3438H31.3541C30.641 20.3438 30.063 21.9702 30.063 23.9766V26.8828H56.398V23.9766C56.398 21.9702 55.82 20.3438 55.1069 20.3438Z" fill="#E95947"/>
<path d="M76.6523 65.0273H9.80859C7.20459 65.0273 5.08594 62.9087 5.08594 60.3047V23.9766C5.08594 21.3726 7.20459 19.2539 9.80859 19.2539H76.6523C79.2563 19.2539 81.375 21.3726 81.375 23.9766V60.3047C81.375 62.9087 79.2563 65.0273 76.6523 65.0273ZM9.80859 21.4336C8.40669 21.4336 7.26562 22.5743 7.26562 23.9766V60.3047C7.26562 61.707 8.40669 62.8477 9.80859 62.8477H76.6523C78.0542 62.8477 79.1953 61.707 79.1953 60.3047V23.9766C79.1953 22.5743 78.0542 21.4336 76.6523 21.4336H9.80859Z" fill="#1C2D6B"/>
<path d="M61.1994 72.2417V68.2969H59.4343V71.5664C59.4343 72.1684 59.9222 72.6562 60.5241 72.6562H61.614C61.3851 72.6562 61.1994 72.4706 61.1994 72.2417Z" fill="#89AADB"/>
<path d="M62.0285 68.2969V72.2417C62.0285 72.4706 61.8428 72.6562 61.614 72.6562H62.7038C63.3058 72.6562 63.7936 72.1684 63.7936 71.5664V68.2969H62.0285Z" fill="#4B67B0"/>
<path d="M62.0285 72.2417V68.2969H61.1998V72.2417C61.1998 72.4706 61.3855 72.6562 61.6143 72.6562C61.8432 72.6562 62.0285 72.4706 62.0285 72.2417Z" fill="#6287C5"/>
<path d="M66.2527 67.2768V60.5982C66.2527 60.0348 66.7093 59.5781 67.2728 59.5781H57.7236C56.7471 59.5781 55.9555 60.3697 55.9555 61.3462V66.5284C55.9555 67.5049 56.7471 68.2965 57.7236 68.2965H67.2728C66.7093 68.2969 66.2527 67.8402 66.2527 67.2768Z" fill="#A4D4A0"/>
<path d="M85.0561 59.5781H75.5069C76.0704 59.5781 76.527 60.0348 76.527 60.5982V67.2768C76.527 67.8402 76.0704 68.2969 75.5069 68.2969H85.0561C86.0326 68.2969 86.8242 67.5053 86.8242 66.5288V61.3466C86.8242 60.3697 86.0326 59.5781 85.0561 59.5781Z" fill="#419B46"/>
<path d="M76.5266 67.2768V60.5982C76.5266 60.0348 76.07 59.5781 75.5065 59.5781H67.2728C66.7093 59.5781 66.2527 60.0348 66.2527 60.5982V67.2768C66.2527 67.8402 66.7093 68.2969 67.2728 68.2969H75.5065C76.07 68.2969 76.5266 67.8402 76.5266 67.2768Z" fill="#65BC49"/>
<path d="M85.0561 69.3867H57.7236C56.1477 69.3867 54.8656 68.1047 54.8656 66.5288V61.3462C54.8656 59.7703 56.1477 58.4883 57.7236 58.4883H85.0561C86.632 58.4883 87.9141 59.7703 87.9141 61.3462V66.5288C87.9141 68.1047 86.632 69.3867 85.0561 69.3867ZM57.7236 60.668C57.3498 60.668 57.0453 60.972 57.0453 61.3462V66.5288C57.0453 66.903 57.3498 67.207 57.7236 67.207H85.0561C85.4299 67.207 85.7344 66.903 85.7344 66.5288V61.3462C85.7344 60.972 85.4299 60.668 85.0561 60.668H57.7236Z" fill="#1C2D6B"/>
<path d="M81.1984 50.8594H74.6383L75.3605 59.5781H83.3781L81.1984 50.8594Z" fill="#D3BA2A"/>
<path d="M61.5809 50.8594L59.4016 59.5781H67.4188L68.1407 50.8594H61.5809Z" fill="#EDE49D"/>
<path d="M68.1407 50.8594L67.4188 59.5781H75.3605L74.6383 50.8594H68.1407Z" fill="#EEE045"/>
<path d="M83.3781 60.668H59.4016C59.0659 60.668 58.7491 60.5132 58.5428 60.2487C58.3361 59.9843 58.2627 59.6395 58.3444 59.3137L60.5237 50.5949C60.6451 50.1099 61.0807 49.7695 61.5809 49.7695H81.1984C81.6987 49.7695 82.1343 50.1099 82.2556 50.5949L84.4353 59.3137C84.517 59.6392 84.4436 59.9843 84.2369 60.2487C84.0306 60.5132 83.7138 60.668 83.3781 60.668ZM60.7969 58.4883H81.9817L80.3469 51.9492H62.4317L60.7969 58.4883Z" fill="#1C2D6B"/>
<path d="M62.6711 73.7461H60.4914C59.2893 73.7461 58.3117 72.7685 58.3117 71.5664V68.2969C58.3117 67.6949 58.7996 67.207 59.4016 67.207H63.761C64.3629 67.207 64.8508 67.6949 64.8508 68.2969V71.5664C64.8508 72.7685 63.8728 73.7461 62.6711 73.7461ZM60.4914 69.3867V71.5664H62.6726L62.6715 69.3867H60.4914Z" fill="#1C2D6B"/>
<path d="M80.7839 72.2417V68.2969H79.0188V71.5664C79.0188 72.1684 79.5067 72.6562 80.1086 72.6562H81.1985C80.9696 72.6562 80.7839 72.4706 80.7839 72.2417Z" fill="#89AADB"/>
<path d="M81.6126 68.2969V72.2417C81.6126 72.4706 81.427 72.6562 81.1981 72.6562H82.2879C82.8899 72.6562 83.3778 72.1684 83.3778 71.5664V68.2969H81.6126Z" fill="#4B67B0"/>
<path d="M81.6126 72.2417V68.2969H80.7839V72.2417C80.7839 72.4706 80.9696 72.6562 81.1984 72.6562C81.4273 72.6562 81.6126 72.4706 81.6126 72.2417Z" fill="#6287C5"/>
<path d="M82.2883 73.7461H80.1086C78.9065 73.7461 77.9289 72.7685 77.9289 71.5664V68.2969C77.9289 67.6949 78.4168 67.207 79.0188 67.207H83.3781C83.9801 67.207 84.468 67.6949 84.468 68.2969V71.5664C84.468 72.7685 83.49 73.7461 82.2883 73.7461ZM80.1086 69.3867V71.5664H82.2898L82.2887 69.3867H80.1086Z" fill="#1C2D6B"/>
<path d="M61.5813 66.1172C62.7851 66.1172 63.761 65.1413 63.761 63.9375C63.761 62.7337 62.7851 61.7578 61.5813 61.7578C60.3775 61.7578 59.4016 62.7337 59.4016 63.9375C59.4016 65.1413 60.3775 66.1172 61.5813 66.1172Z" fill="#1C2D6B"/>
<path d="M81.1985 66.1172C82.4023 66.1172 83.3781 65.1413 83.3781 63.9375C83.3781 62.7337 82.4023 61.7578 81.1985 61.7578C79.9946 61.7578 79.0188 62.7337 79.0188 63.9375C79.0188 65.1413 79.9946 66.1172 81.1985 66.1172Z" fill="#1C2D6B"/>
<path d="M75.3601 65.0273H67.3167C66.7148 65.0273 66.2269 64.5395 66.2269 63.9375C66.2269 63.3355 66.7148 62.8477 67.3167 62.8477H75.3601C75.9621 62.8477 76.45 63.3355 76.45 63.9375C76.45 64.5395 75.9625 65.0273 75.3601 65.0273Z" fill="#1C2D6B"/>
<path d="M80.2852 27.9727H6.17578C5.57382 27.9727 5.08594 27.4848 5.08594 26.8828C5.08594 26.2809 5.57382 25.793 6.17578 25.793H80.2852C80.8871 25.793 81.375 26.2809 81.375 26.8828C81.375 27.4848 80.8871 27.9727 80.2852 27.9727Z" fill="#1C2D6B"/>
<path d="M17.2915 31.2422H10.5352V50.8594H17.2915V31.2422Z" fill="#A4D4A0"/>
<path d="M30.1523 31.2422H23.396V50.8594H30.1523V31.2422Z" fill="#419B46"/>
<path d="M23.3964 31.2422H17.2915V50.8594H23.3964V31.2422Z" fill="#65BC49"/>
<path d="M30.1523 51.9492H10.5352C9.9332 51.9492 9.44531 51.4613 9.44531 50.8594V31.2422C9.44531 30.6402 9.9332 30.1523 10.5352 30.1523H30.1523C30.7543 30.1523 31.2422 30.6402 31.2422 31.2422V50.8594C31.2422 51.4613 30.7543 51.9492 30.1523 51.9492ZM11.625 49.7695H29.0625V32.332H11.625V49.7695Z" fill="#1C2D6B"/>
<path d="M75.3602 34.5117H36.1258C35.5238 34.5117 35.0359 34.0238 35.0359 33.4219C35.0359 32.8199 35.5238 32.332 36.1258 32.332H75.3602C75.9621 32.332 76.45 32.8199 76.45 33.4219C76.45 34.0238 75.9625 34.5117 75.3602 34.5117Z" fill="#1C2D6B"/>
<path d="M66.2527 40.3242H36.1258C35.5238 40.3242 35.0359 39.8363 35.0359 39.2344C35.0359 38.6324 35.5238 38.1445 36.1258 38.1445H66.2527C66.8547 38.1445 67.3426 38.6324 67.3426 39.2344C67.3426 39.8363 66.8547 40.3242 66.2527 40.3242Z" fill="#1C2D6B"/>
<path d="M54.1289 46.1367H36.1258C35.5238 46.1367 35.0359 45.6488 35.0359 45.0469C35.0359 44.4449 35.5238 43.957 36.1258 43.957H54.1289C54.7309 43.957 55.2188 44.4449 55.2188 45.0469C55.2188 45.6488 54.7309 46.1367 54.1289 46.1367Z" fill="#1C2D6B"/>
<path d="M54.1289 51.9492H36.1258C35.5238 51.9492 35.0359 51.4613 35.0359 50.8594C35.0359 50.2574 35.5238 49.7695 36.1258 49.7695H54.1289C54.7309 49.7695 55.2188 50.2574 55.2188 50.8594C55.2188 51.4613 54.7309 51.9492 54.1289 51.9492Z" fill="#1C2D6B"/>
<path d="M54.1289 58.4883H10.5352C9.9332 58.4883 9.44531 58.0004 9.44531 57.3984C9.44531 56.7965 9.9332 56.3086 10.5352 56.3086H54.1289C54.7309 56.3086 55.2188 56.7965 55.2188 57.3984C55.2188 58.0004 54.7309 58.4883 54.1289 58.4883Z" fill="#1C2D6B"/>
<path d="M20.3438 42.1406C21.2167 42.1406 21.9244 42.8483 21.9244 43.7213V50.8594H25.793V47.5898C25.793 44.5804 23.3532 42.1406 20.3438 42.1406Z" fill="#E8383B"/>
<path d="M20.3438 42.1406C17.3343 42.1406 14.8945 44.5804 14.8945 47.5898V50.8594H18.7631V43.7213C18.7631 42.8483 19.4708 42.1406 20.3438 42.1406Z" fill="#EF7F72"/>
<path d="M20.3438 42.1406C19.4708 42.1406 18.7631 42.8483 18.7631 43.7213V50.8594H21.9248V43.7213C21.9244 42.8483 21.2167 42.1406 20.3438 42.1406Z" fill="#E95947"/>
<path d="M25.793 51.9492H14.8945C14.2926 51.9492 13.8047 51.4613 13.8047 50.8594V47.5898C13.8047 43.9843 16.7382 41.0508 20.3438 41.0508C23.9493 41.0508 26.8828 43.9843 26.8828 47.5898V50.8594C26.8828 51.4613 26.3949 51.9492 25.793 51.9492ZM15.9844 49.7695H24.7031V47.5898C24.7031 45.186 22.7476 43.2305 20.3438 43.2305C17.9399 43.2305 15.9844 45.186 15.9844 47.5898V49.7695Z" fill="#1C2D6B"/>
<path d="M19.2219 39.4357C19.2219 37.0835 19.7243 35.177 20.3437 35.177C17.9915 35.177 16.085 37.0839 16.085 39.4357C16.085 41.788 17.9919 43.6945 20.3437 43.6945C19.724 43.6945 19.2219 41.788 19.2219 39.4357Z" fill="#EDE49D"/>
<path d="M20.3438 35.177C20.9635 35.177 21.4656 37.0839 21.4656 39.4357C21.4656 41.788 20.9631 43.6945 20.3438 43.6945C22.696 43.6945 24.6025 41.7876 24.6025 39.4357C24.6025 37.0835 22.696 35.177 20.3438 35.177Z" fill="#D3BA2A"/>
<path d="M20.3437 43.6945C20.9633 43.6945 21.4655 41.7878 21.4655 39.4357C21.4655 37.0837 20.9633 35.177 20.3437 35.177C19.7242 35.177 19.2219 37.0837 19.2219 39.4357C19.2219 41.7878 19.7242 43.6945 20.3437 43.6945Z" fill="#EEE045"/>
<path d="M20.3438 44.7842C17.3946 44.7842 14.9948 42.3847 14.9948 39.4356C14.9948 36.4861 17.3943 34.0867 20.3438 34.0867C23.2932 34.0867 25.6927 36.4861 25.6927 39.4356C25.6927 42.3847 23.2929 44.7842 20.3438 44.7842ZM20.3438 36.2667C18.596 36.2667 17.1745 37.6886 17.1745 39.436C17.1745 41.1834 18.596 42.6049 20.3438 42.6049C22.0915 42.6049 23.513 41.1834 23.513 39.436C23.513 37.6886 22.0915 36.2667 20.3438 36.2667Z" fill="#1C2D6B"/>
</svg>
