<svg width="51" height="78" viewBox="0 0 51 78" fill="none" xmlns="http://www.w3.org/2000/svg">
<path d="M48.7301 0.668945H2.44692C1.89038 0.668945 1.43756 1.15304 1.43756 1.74769V76.038C1.43756 76.6329 1.89038 77.1167 2.44692 77.1167H42.6281L49.7398 69.5138V1.74769C49.7395 1.15304 49.287 0.668945 48.7301 0.668945Z" fill="#70D6F9"/>
<path d="M42.4982 77.8859H2.45376C1.47862 77.8859 0.685516 77.0373 0.685516 75.9942V1.89168C0.685516 0.848611 1.47892 0 2.45376 0H48.5798C49.555 0 50.3481 0.848611 50.3481 1.89168V69.4866C50.3481 69.7029 50.2679 69.9104 50.1249 70.0634L43.0373 77.6471C42.8943 77.7998 42.7003 77.8859 42.4982 77.8859ZM2.45376 1.63132C2.31929 1.63132 2.21012 1.74812 2.21012 1.89168V75.9942C2.21012 76.1375 2.31929 76.2546 2.45376 76.2546H42.1826L48.8238 69.1489V1.89168C48.8238 1.74845 48.7146 1.63132 48.5801 1.63132H2.45376ZM49.5861 69.4866H49.5891H49.5861Z" fill="black"/>
<path d="M42.5836 77.8858C42.4869 77.8858 42.3893 77.8653 42.2965 77.8238C42.0158 77.6973 41.8332 77.3993 41.8332 77.0689V70.5516C41.8332 69.507 42.6146 68.6567 43.5746 68.6567H49.564C49.8676 68.6567 50.1415 68.8557 50.2577 69.1609C50.3739 69.4665 50.3096 69.8177 50.0949 70.0514L43.1149 77.6467C42.971 77.8028 42.7788 77.8858 42.5836 77.8858ZM43.5743 70.2906C43.4422 70.2906 43.3344 70.4075 43.3344 70.5516V75.0969L47.7511 70.2906H43.5743Z" fill="black"/>
<path d="M43.2476 36.1403H31.67C31.2489 36.1403 30.9077 35.7753 30.9077 35.3247C30.9077 34.8741 31.2489 34.509 31.67 34.509H43.2476C43.6687 34.509 44.0099 34.8741 44.0099 35.3247C44.0099 35.7753 43.6687 36.1403 43.2476 36.1403Z" fill="white"/>
<path d="M43.2476 31.9875H31.67C31.2489 31.9875 30.9077 31.6224 30.9077 31.1719C30.9077 30.7213 31.2489 30.3562 31.67 30.3562H43.2476C43.6687 30.3562 44.0099 30.7213 44.0099 31.1719C44.0099 31.6224 43.6687 31.9875 43.2476 31.9875Z" fill="white"/>
<path d="M43.2476 28.2959H31.67C31.2489 28.2959 30.9077 27.9308 30.9077 27.4802C30.9077 27.0296 31.2489 26.6646 31.67 26.6646H43.2476C43.6687 26.6646 44.0099 27.0296 44.0099 27.4802C44.0099 27.9308 43.6687 28.2959 43.2476 28.2959Z" fill="white"/>
<path d="M43.2476 39.832H31.67C31.2489 39.832 30.9077 39.4669 30.9077 39.0163C30.9077 38.5658 31.2489 38.2007 31.67 38.2007H43.2476C43.6687 38.2007 44.0099 38.5658 44.0099 39.0163C44.0099 39.4669 43.6687 39.832 43.2476 39.832Z" fill="white"/>
<path d="M43.2476 43.9851H31.67C31.2489 43.9851 30.9077 43.62 30.9077 43.1694C30.9077 42.7188 31.2489 42.3538 31.67 42.3538H43.2476C43.6687 42.3538 44.0099 42.7188 44.0099 43.1694C44.0099 43.62 43.6687 43.9851 43.2476 43.9851Z" fill="white"/>
<path d="M29.2893 59.5817H7.51262C7.25379 59.5817 7.04407 59.203 7.04407 58.7357C7.04407 58.2683 7.25379 57.8896 7.51262 57.8896H29.2891C29.5479 57.8896 29.7576 58.2683 29.7576 58.7357C29.7576 59.203 29.5481 59.5817 29.2893 59.5817Z" fill="white"/>
<path d="M39.5671 55.89H7.7291C7.35069 55.89 7.04407 55.5113 7.04407 55.044C7.04407 54.5767 7.35069 54.198 7.7291 54.198H39.5668C39.9452 54.198 40.2519 54.5767 40.2519 55.044C40.2519 55.5113 39.9455 55.89 39.5671 55.89Z" fill="white"/>
<path d="M43.2315 63.2246H7.8021C7.381 63.2246 7.03979 62.8595 7.03979 62.4089C7.03979 61.9584 7.381 61.5933 7.8021 61.5933H43.2312C43.6523 61.5933 43.9935 61.9584 43.9935 62.4089C43.9935 62.8595 43.6526 63.2246 43.2315 63.2246Z" fill="white"/>
<path d="M33.3967 14.6384C33.4614 14.4963 33.5187 14.3468 33.5683 14.1901C34.1361 12.3974 33.2774 10.2498 31.4696 9.73131C31.2742 7.1047 29.5491 5.30295 27.6009 4.99539C25.371 4.64353 23.3283 6.15918 22.6486 8.56821C21.8294 8.25765 21.0311 8.29549 20.2787 8.76594C19.9374 8.93483 19.6252 9.18402 19.345 9.51188C18.9338 9.99318 18.6664 10.6007 18.5575 11.2412C18.3963 11.2684 18.2378 11.2956 18.0883 11.3529C17.2172 11.6872 16.6675 12.3752 16.5168 13.4116C16.423 14.057 16.6123 14.7007 16.718 14.9607C17.1352 15.9886 18.1028 16.5712 19.0859 16.4171C19.1348 16.4095 19.206 16.433 19.248 16.4709C19.3 18.1136 20.0454 19.5665 21.1637 20.3965C22.958 21.7282 25.2666 21.318 26.723 19.4918C27.347 20.1747 28.0897 20.5065 28.9622 20.3861C29.8297 20.2663 30.5033 19.7541 30.9947 18.9212C31.2218 18.9865 31.437 19.0806 31.6595 19.1067C32.5311 19.2087 33.1944 18.8042 33.7581 17.9992C34.079 17.541 34.1417 16.8121 34.1447 16.5332C34.1531 15.7821 33.8661 15.0976 33.3967 14.6384Z" fill="#C8EDE6"/>
<path d="M30.4015 16.6666C30.4015 16.6666 32.9225 16.6666 32.9378 16.6666C33.52 16.6666 33.9919 16.1616 33.9919 15.5386C33.9919 14.9952 33.6326 14.5416 33.1543 14.4348C33.1599 14.3873 33.1636 14.339 33.1636 14.2899C33.1636 13.6448 32.6748 13.1217 32.0718 13.1217C31.7158 13.1217 31.4006 13.3049 31.2013 13.5871C31.1504 12.8688 30.5507 12.3149 29.8493 12.4067C29.3363 12.4738 28.9121 12.8982 28.8177 13.4417C28.7875 13.6162 28.7905 13.7853 28.8207 13.944C28.6831 13.7855 28.4873 13.6859 28.2693 13.6859C27.8704 13.6859 27.5446 14.0183 27.5189 14.4383C27.3378 14.3953 27.1407 14.3981 26.933 14.4816C26.5363 14.6411 26.2538 15.0407 26.2372 15.4938C26.2137 16.1373 26.6943 16.6671 27.2906 16.6671C27.3358 16.6671 27.495 16.6671 27.5316 16.6671H29.721" fill="#FDFCEF"/>
<path d="M32.9378 16.782H30.4015C30.342 16.782 30.2937 16.7304 30.2937 16.6667C30.2937 16.603 30.342 16.5513 30.4015 16.5513H32.9378C33.4594 16.5513 33.884 16.097 33.884 15.5386C33.884 15.062 33.5679 14.645 33.1323 14.5474C33.0776 14.5352 33.0407 14.4801 33.0474 14.4203C33.0523 14.3774 33.0558 14.3342 33.0558 14.2897C33.0558 13.7092 32.6144 13.2371 32.0718 13.2371C31.7618 13.2371 31.4756 13.3901 31.2874 13.6566C31.2604 13.6949 31.2145 13.7113 31.1709 13.6977C31.128 13.6841 31.0972 13.6437 31.0939 13.5959C31.0715 13.278 30.926 12.9794 30.6948 12.7768C30.4613 12.5719 30.1658 12.4813 29.8627 12.5212C29.3954 12.5826 29.0096 12.9695 28.924 13.4626C28.8973 13.6169 28.8981 13.7713 28.9266 13.921C28.9363 13.9718 28.9132 14.023 28.8703 14.0465C28.8272 14.0708 28.7748 14.0604 28.742 14.0225C28.6182 13.8799 28.4505 13.8013 28.2698 13.8013C27.9314 13.8013 27.6492 14.0844 27.627 14.4457C27.6248 14.4794 27.6093 14.5103 27.584 14.5304C27.5588 14.5507 27.5263 14.5578 27.4961 14.5509C27.3149 14.5082 27.1431 14.5204 26.9714 14.5894C26.6115 14.7341 26.3599 15.0991 26.3454 15.498C26.3353 15.7765 26.4289 16.0405 26.6089 16.2407C26.789 16.441 27.0314 16.5515 27.2912 16.5515H29.721C29.7805 16.5515 29.8288 16.6032 29.8288 16.6669C29.8288 16.7306 29.7805 16.7823 29.721 16.7823H27.291C26.9721 16.7823 26.6747 16.6468 26.4535 16.4009C26.2324 16.1549 26.1175 15.831 26.13 15.4893C26.1479 14.9987 26.4556 14.5504 26.8957 14.3737C27.0682 14.3045 27.2468 14.2816 27.4279 14.3047C27.509 13.8843 27.8585 13.5705 28.27 13.5705C28.4177 13.5705 28.5619 13.6121 28.6892 13.6882C28.6892 13.5991 28.6967 13.5101 28.7122 13.4208C28.8149 12.8297 29.2772 12.3657 29.8368 12.2923C30.1995 12.2443 30.5525 12.3537 30.8319 12.5985C31.0484 12.7884 31.2022 13.0486 31.2716 13.3354C31.4898 13.1241 31.7717 13.0064 32.0725 13.0064C32.7338 13.0064 33.2721 13.5821 33.2721 14.2897C33.2721 14.3091 33.2716 14.328 33.2706 14.3469C33.7566 14.5024 34.1003 14.9879 34.1003 15.5386C34.0999 16.2244 33.5787 16.782 32.9378 16.782Z" fill="#472B29"/>
<path d="M29.7906 14.182C29.4008 14.1545 29.065 14.4427 29.0411 14.8255C29.0381 14.873 29.04 14.9199 29.0465 14.9653C28.9712 14.8744 28.8599 14.8128 28.7321 14.8038C28.4981 14.7874 28.2961 14.9526 28.2667 15.1776C28.2242 15.1651 28.1798 15.1568 28.1339 15.1536C27.7928 15.1296 27.4991 15.3818 27.4779 15.7168" fill="#FDFCEF"/>
<path d="M27.4782 15.7741C27.4769 15.7741 27.4756 15.7741 27.4745 15.7738C27.4447 15.7718 27.4223 15.7443 27.4243 15.7125C27.4471 15.3463 27.7675 15.0706 28.1374 15.0957C28.1665 15.0976 28.1958 15.1015 28.2255 15.108C28.2846 14.8844 28.4962 14.7277 28.7357 14.7462C28.8274 14.7524 28.9132 14.7831 28.9865 14.8343C28.9867 14.8299 28.987 14.8258 28.9872 14.8214C29.013 14.4077 29.3745 14.09 29.7941 14.1244C29.8238 14.1265 29.8463 14.1539 29.8443 14.1857C29.8424 14.2176 29.8141 14.2441 29.787 14.2393C29.4245 14.2181 29.1166 14.479 29.0948 14.8295C29.092 14.8719 29.0937 14.9146 29.0997 14.9566C29.1034 14.9818 29.0909 15.0067 29.0693 15.0178C29.0478 15.0284 29.0221 15.0231 29.0061 15.0037C28.9376 14.9208 28.8362 14.8689 28.7284 14.8613C28.5281 14.853 28.3457 14.9894 28.32 15.1855C28.3178 15.2019 28.3092 15.2166 28.2963 15.2259C28.2831 15.2351 28.2674 15.2376 28.2523 15.2333C28.2111 15.2213 28.1701 15.2139 28.13 15.2109C27.8206 15.1913 27.5506 15.4176 27.5314 15.7203C27.5299 15.7508 27.5064 15.7741 27.4782 15.7741Z" fill="#472B29"/>
<path d="M33.3648 14.567C32.9984 14.3822 32.5747 14.513 32.4183 14.8594C32.3989 14.9023 32.3845 14.9468 32.375 14.9918" fill="#FDFCEF"/>
<path d="M32.375 15.0493C32.3711 15.0493 32.367 15.0488 32.3629 15.0479C32.3338 15.0407 32.3157 15.0098 32.3224 14.9787C32.333 14.9288 32.3489 14.8801 32.3696 14.8342C32.5383 14.4602 32.995 14.3169 33.3876 14.5147C33.4146 14.5285 33.4262 14.5627 33.4135 14.5915C33.4008 14.6203 33.3684 14.6323 33.3417 14.6192C33.0023 14.4478 32.6098 14.5668 32.4667 14.8841C32.4494 14.9224 32.4363 14.9627 32.4274 15.0043C32.4218 15.031 32.3996 15.0493 32.375 15.0493Z" fill="#472B29"/>
<path d="M18.23 12.8009H16.0672C16.0077 12.8009 15.9594 12.7492 15.9594 12.6856C15.9594 12.6219 16.0077 12.5702 16.0672 12.5702H18.2302C18.2897 12.5702 18.338 12.6219 18.338 12.6856C18.338 12.7492 18.2897 12.8009 18.23 12.8009ZM18.8512 12.8009H18.5394C18.4799 12.8009 18.4316 12.7492 18.4316 12.6856C18.4316 12.6219 18.4799 12.5702 18.5394 12.5702H18.8512C18.9107 12.5702 18.9591 12.6219 18.9591 12.6856C18.9591 12.7492 18.911 12.8009 18.8512 12.8009ZM19.7256 12.8009H19.1766C19.1171 12.8009 19.0688 12.7492 19.0688 12.6856C19.0688 12.6219 19.1171 12.5702 19.1766 12.5702H19.7256C19.7851 12.5702 19.8335 12.6219 19.8335 12.6856C19.8335 12.7492 19.7851 12.8009 19.7256 12.8009ZM19.7256 13.2312H17.6521C17.5926 13.2312 17.5443 13.1795 17.5443 13.1159C17.5443 13.0522 17.5926 13.0005 17.6521 13.0005H19.7256C19.7851 13.0005 19.8335 13.0522 19.8335 13.1159C19.8335 13.1795 19.7851 13.2312 19.7256 13.2312ZM17.2786 13.2312H17.1535C17.094 13.2312 17.0457 13.1795 17.0457 13.1159C17.0457 13.0522 17.094 13.0005 17.1535 13.0005H17.2786C17.3381 13.0005 17.3864 13.0522 17.3864 13.1159C17.3864 13.1795 17.3383 13.2312 17.2786 13.2312ZM16.766 13.2312H16.4521C16.3926 13.2312 16.3443 13.1795 16.3443 13.1159C16.3443 13.0522 16.3926 13.0005 16.4521 13.0005H16.766C16.8256 13.0005 16.8739 13.0522 16.8739 13.1159C16.8739 13.1795 16.8258 13.2312 16.766 13.2312ZM18.7361 12.3706H17.6521C17.5926 12.3706 17.5443 12.3189 17.5443 12.2552C17.5443 12.1916 17.5926 12.1399 17.6521 12.1399H18.7361C18.7956 12.1399 18.8439 12.1916 18.8439 12.2552C18.8439 12.3189 18.7956 12.3706 18.7361 12.3706ZM18.7361 11.9403H18.465C18.4055 11.9403 18.3572 11.8886 18.3572 11.8249C18.3572 11.7613 18.4055 11.7096 18.465 11.7096H18.7361C18.7956 11.7096 18.8439 11.7613 18.8439 11.8249C18.8439 11.8886 18.7956 11.9403 18.7361 11.9403ZM18.0314 13.6615H17.6521C17.5926 13.6615 17.5443 13.6098 17.5443 13.5462C17.5443 13.4825 17.5926 13.4308 17.6521 13.4308H18.0314C18.0909 13.4308 18.1392 13.4825 18.1392 13.5462C18.1392 13.6098 18.0909 13.6615 18.0314 13.6615ZM29.697 6.73808H27.5342C27.4747 6.73808 27.4264 6.6864 27.4264 6.62272C27.4264 6.55904 27.4747 6.50736 27.5342 6.50736H29.697C29.7565 6.50736 29.8048 6.55904 29.8048 6.62272C29.8048 6.6864 29.7568 6.73808 29.697 6.73808ZM30.3185 6.73808H30.0067C29.9472 6.73808 29.8989 6.6864 29.8989 6.62272C29.8989 6.55904 29.9472 6.50736 30.0067 6.50736H30.3185C30.378 6.50736 30.4263 6.55904 30.4263 6.62272C30.4263 6.6864 30.378 6.73808 30.3185 6.73808ZM31.1927 6.73808H30.6437C30.5842 6.73808 30.5359 6.6864 30.5359 6.62272C30.5359 6.55904 30.5842 6.50736 30.6437 6.50736H31.1927C31.2522 6.50736 31.3005 6.55904 31.3005 6.62272C31.3005 6.6864 31.2522 6.73808 31.1927 6.73808ZM30.7558 5.8777H28.682C28.6225 5.8777 28.5742 5.82602 28.5742 5.76234C28.5742 5.69866 28.6225 5.64697 28.682 5.64697H30.7558C30.8153 5.64697 30.8636 5.69866 30.8636 5.76234C30.8636 5.82602 30.8155 5.8777 30.7558 5.8777ZM28.3088 5.8777H28.1837C28.1242 5.8777 28.0759 5.82602 28.0759 5.76234C28.0759 5.69866 28.1242 5.64697 28.1837 5.64697H28.3088C28.3683 5.64697 28.4166 5.69866 28.4166 5.76234C28.4166 5.82602 28.3685 5.8777 28.3088 5.8777ZM27.7962 5.8777H27.4822C27.4227 5.8777 27.3744 5.82602 27.3744 5.76234C27.3744 5.69866 27.4227 5.64697 27.4822 5.64697H27.7962C27.8557 5.64697 27.904 5.69866 27.904 5.76234C27.904 5.82602 27.8559 5.8777 27.7962 5.8777ZM30.2031 6.30778H29.1191C29.0596 6.30778 29.0113 6.25609 29.0113 6.19241C29.0113 6.12873 29.0596 6.07705 29.1191 6.07705H30.2031C30.2626 6.07705 30.3109 6.12873 30.3109 6.19241C30.3109 6.25609 30.2626 6.30778 30.2031 6.30778Z" fill="white"/>
<path d="M30.2031 5.8777H29.9321C29.8726 5.8777 29.8243 5.82602 29.8243 5.76234C29.8243 5.69866 29.8726 5.64697 29.9321 5.64697H30.2031C30.2627 5.64697 30.311 5.69866 30.311 5.76234C30.311 5.82602 30.2627 5.8777 30.2031 5.8777ZM28.8052 6.30778H28.4259C28.3664 6.30778 28.3181 6.25609 28.3181 6.19241C28.3181 6.12873 28.3664 6.07705 28.4259 6.07705H28.8052C28.8647 6.07705 28.913 6.12873 28.913 6.19241C28.913 6.25609 28.8649 6.30778 28.8052 6.30778Z" fill="white"/>
<path d="M20.8579 12.366H26.2976V17.2673H20.8579V12.366Z" fill="#FDFCEE"/>
<path d="M26.4056 17.3826H20.7501V12.2505H26.4056V17.3826ZM20.9658 17.1518H26.1899V12.4812H20.9658V17.1518Z" fill="#472B29"/>
<path d="M26.0114 17.4287H20.8579C20.7745 17.4287 20.707 17.3565 20.707 17.2672V12.3659C20.707 12.2766 20.7745 12.2043 20.8579 12.2043C20.9414 12.2043 21.0089 12.2766 21.0089 12.3659V17.1057H26.0114C26.0949 17.1057 26.1624 17.1779 26.1624 17.2672C26.1624 17.3565 26.0949 17.4287 26.0114 17.4287Z" fill="#472B29"/>
<path d="M26.2978 12.366H31.308V17.5737H26.2978V12.366Z" fill="#FDFCEE"/>
<path d="M31.3078 17.7351H26.2978C26.2143 17.7351 26.1468 17.6629 26.1468 17.5736V12.3659C26.1468 12.2766 26.2143 12.2043 26.2978 12.2043H31.308C31.3915 12.2043 31.459 12.2766 31.459 12.3659V17.5736C31.459 17.6629 31.3913 17.7351 31.3078 17.7351ZM26.4487 17.4121H31.1569V12.5274H26.4487V17.4121Z" fill="#472B29"/>
<path d="M26.4407 12.519H31.1647V12.9787H26.4407V12.519Z" fill="#CDCBBD"/>
<path d="M20.8622 12.3657H20.4178L21.4624 9.45557H22.0858H23.9631H31.0217L31.8277 12.3657H31.6336H20.8622Z" fill="#EE3E54"/>
<path d="M31.8277 12.5274H20.4178C20.3682 12.5274 20.3216 12.5013 20.2934 12.4572C20.2654 12.4134 20.2591 12.3573 20.277 12.308L21.3215 9.39779C21.344 9.33526 21.4 9.29419 21.4624 9.29419H31.0219C31.0887 9.29419 31.1476 9.34126 31.1666 9.40978L31.9726 12.32C31.986 12.3689 31.9772 12.4217 31.9489 12.4625C31.9202 12.5032 31.8754 12.5274 31.8277 12.5274ZM20.6373 12.2041H31.6255L30.9091 9.61721H21.5661L20.6373 12.2041Z" fill="#472B29"/>
<path d="M29.8049 14.4337V16.4249H27.8008V13.9741H29.5185" fill="#C0E5E4"/>
<path d="M29.8049 16.5056H27.8008C27.7591 16.5056 27.7253 16.4696 27.7253 16.4249V13.9741C27.7253 13.9295 27.7591 13.8933 27.8008 13.8933H29.5185C29.5601 13.8933 29.594 13.9293 29.594 13.9741C29.594 14.0188 29.5601 14.0548 29.5185 14.0548H27.8762V16.3443H29.7294V14.4337C29.7294 14.3891 29.7632 14.3529 29.8049 14.3529C29.8465 14.3529 29.8803 14.3889 29.8803 14.4337V16.4251C29.8803 16.4696 29.8467 16.5056 29.8049 16.5056Z" fill="#472B29"/>
<path d="M28.8028 16.5056C28.7612 16.5056 28.7273 16.4696 28.7273 16.4249V13.9741C28.7273 13.9295 28.7612 13.8933 28.8028 13.8933C28.8444 13.8933 28.8783 13.9293 28.8783 13.9741V16.4249C28.8783 16.4696 28.8446 16.5056 28.8028 16.5056Z" fill="#472B29"/>
<path d="M23.9376 17.1906V14.8284C23.9376 14.2742 23.4868 13.8208 22.9356 13.8208C22.3844 13.8208 21.9335 14.2742 21.9335 14.8284V17.1906H23.9376Z" fill="#B2B1C2"/>
<path d="M23.9376 17.2711H21.9335C21.8919 17.2711 21.8581 17.2351 21.8581 17.1903V14.8286C21.8581 14.2285 22.3415 13.7402 22.9356 13.7402C23.5297 13.7402 24.0131 14.2285 24.0131 14.8286V17.1905C24.0131 17.2351 23.9793 17.2711 23.9376 17.2711ZM22.009 17.1098H23.8622V14.8286C23.8622 14.3175 23.4464 13.9015 22.9356 13.9015C22.4248 13.9015 22.009 14.3175 22.009 14.8286V17.1098Z" fill="#472B29"/>
<path d="M23.5081 15.3526V15.0932C23.5081 14.7234 23.2504 14.4207 22.9356 14.4207C22.6208 14.4207 22.3631 14.7234 22.3631 15.0932V15.3526H23.5081Z" fill="#C0E5E4"/>
<path d="M23.5081 15.4103H22.3629C22.3331 15.4103 22.309 15.3845 22.309 15.3526V15.0935C22.309 14.6909 22.5899 14.3633 22.9354 14.3633C23.2808 14.3633 23.5618 14.6909 23.5618 15.0935V15.3526C23.562 15.3845 23.5379 15.4103 23.5081 15.4103ZM22.4168 15.295H23.4542V15.0935C23.4542 14.7544 23.2215 14.4786 22.9356 14.4786C22.6497 14.4786 22.417 14.7544 22.417 15.0935V15.295H22.4168ZM23.6513 16.0229H23.5081C23.4783 16.0229 23.4542 15.9971 23.4542 15.9652C23.4542 15.9334 23.4783 15.9075 23.5081 15.9075H23.6513C23.681 15.9075 23.7052 15.9334 23.7052 15.9652C23.7052 15.9971 23.681 16.0229 23.6513 16.0229Z" fill="#472B29"/>
<path d="M21.0011 12.519H26.1546V12.8254H21.0011V12.519Z" fill="#CDCBBD"/>
<path d="M25.6554 15.5058H24.6533V14.1272H25.7986V15.1994" fill="#C0E5E4"/>
<path d="M25.6554 15.5865H24.6533C24.6117 15.5865 24.5779 15.5505 24.5779 15.5057V14.1271C24.5779 14.0826 24.6117 14.0464 24.6533 14.0464H25.7986C25.8402 14.0464 25.874 14.0824 25.874 14.1271V15.1991C25.874 15.2436 25.8402 15.2799 25.7986 15.2799C25.7569 15.2799 25.7231 15.2439 25.7231 15.1991V14.2079H24.729V15.425H25.6556C25.6972 15.425 25.7311 15.461 25.7311 15.5057C25.7311 15.5505 25.697 15.5865 25.6554 15.5865Z" fill="#472B29"/>
<path d="M25.2258 15.5865C25.1842 15.5865 25.1504 15.5505 25.1504 15.5057V14.1271C25.1504 14.0826 25.1842 14.0464 25.2258 14.0464C25.2675 14.0464 25.3013 14.0824 25.3013 14.1271V15.5057C25.3013 15.5503 25.2677 15.5865 25.2258 15.5865Z" fill="#472B29"/>
<path d="M29.5185 8.91943H30.5206V11.0638H29.5185V8.91943Z" fill="#FDD4B2"/>
<path d="M30.5207 11.1216H29.5187C29.4889 11.1216 29.4648 11.0957 29.4648 11.0639V8.9195C29.4648 8.88766 29.4889 8.86182 29.5187 8.86182H30.5207C30.5505 8.86182 30.5747 8.88766 30.5747 8.9195V11.0639C30.5747 11.0957 30.5505 11.1216 30.5207 11.1216ZM29.5726 11.0062H30.4668V8.97718H29.5726V11.0062Z" fill="#472B29"/>
<path d="M30.6637 9.07276H29.3753C29.2966 9.07276 29.2321 9.00378 29.2321 8.91956C29.2321 8.83535 29.2966 8.76636 29.3753 8.76636H30.6637C30.7424 8.76636 30.8069 8.83535 30.8069 8.91956C30.8069 9.00378 30.7424 9.07276 30.6637 9.07276Z" fill="#FBB97F"/>
<path d="M30.6637 9.13027H29.3753C29.2666 9.13027 29.1782 9.03567 29.1782 8.91938C29.1782 8.80309 29.2666 8.7085 29.3753 8.7085H30.6637C30.7724 8.7085 30.8608 8.80309 30.8608 8.91938C30.8608 9.03567 30.7724 9.13027 30.6637 9.13027ZM29.3753 8.82386C29.3261 8.82386 29.286 8.86678 29.286 8.91938C29.286 8.97199 29.3261 9.0149 29.3753 9.0149H30.6637C30.7131 9.0149 30.753 8.97199 30.753 8.91938C30.753 8.86678 30.7129 8.82386 30.6637 8.82386H29.3753ZM25.7966 12.971H25.3673C25.3315 12.971 25.3026 12.94 25.3026 12.9017C25.3026 12.8634 25.3315 12.8325 25.3673 12.8325H25.7968C25.8326 12.8325 25.8615 12.8634 25.8615 12.9017C25.8615 12.94 25.8324 12.971 25.7966 12.971ZM24.9378 12.971H20.9295C20.8937 12.971 20.8648 12.94 20.8648 12.9017C20.8648 12.8634 20.8937 12.8325 20.9295 12.8325H24.9378C24.9735 12.8325 25.0024 12.8634 25.0024 12.9017C25.0024 12.94 24.9733 12.971 24.9378 12.971ZM31.3794 13.1242H27.6576C27.6218 13.1242 27.5929 13.0932 27.5929 13.0549C27.5929 13.0166 27.6218 12.9857 27.6576 12.9857H31.3794C31.4152 12.9857 31.4441 13.0166 31.4441 13.0549C31.4441 13.0932 31.4152 13.1242 31.3794 13.1242ZM29.0892 10.214H21.6452C21.6094 10.214 21.5805 10.1831 21.5805 10.1448C21.5805 10.1065 21.6094 10.0756 21.6452 10.0756H29.0892C29.125 10.0756 29.1538 10.1065 29.1538 10.1448C29.1538 10.1831 29.1247 10.214 29.0892 10.214ZM28.6596 10.6736H21.5023C21.4665 10.6736 21.4376 10.6427 21.4376 10.6044C21.4376 10.5661 21.4665 10.5352 21.5023 10.5352H28.6596C28.6954 10.5352 28.7243 10.5661 28.7243 10.6044C28.7243 10.6427 28.6954 10.6736 28.6596 10.6736ZM28.3732 11.133H21.3591C21.3233 11.133 21.2944 11.1021 21.2944 11.0638C21.2944 11.0255 21.3233 10.9945 21.3591 10.9945H28.3732C28.409 10.9945 28.4379 11.0255 28.4379 11.0638C28.4379 11.1021 28.409 11.133 28.3732 11.133ZM27.228 13.1242H26.9416C26.9059 13.1242 26.877 13.0932 26.877 13.0549C26.877 13.0166 26.9059 12.9857 26.9416 12.9857H27.228C27.2638 12.9857 27.2927 13.0166 27.2927 13.0549C27.2927 13.0932 27.2638 13.1242 27.228 13.1242Z" fill="#472B29"/>
<path d="M21.7278 17.929C22.1121 17.929 22.4455 17.929 22.4502 17.929C22.8808 17.929 23.2297 17.561 23.2297 17.107C23.2297 16.7108 22.9641 16.3804 22.6104 16.3024C22.6145 16.2678 22.6173 16.2327 22.6173 16.1967C22.6173 15.7265 22.2559 15.3451 21.81 15.3451C21.5467 15.3451 21.3136 15.4787 21.1661 15.6843C21.1284 15.1608 20.685 14.757 20.1662 14.8239C19.7869 14.8728 19.4731 15.182 19.4033 15.5784C19.3809 15.7055 19.3832 15.8287 19.4054 15.9446C19.3037 15.829 19.159 15.7563 18.9977 15.7563C18.7025 15.7563 18.4618 15.9986 18.4426 16.3047C18.3087 16.2736 18.1629 16.2754 18.0094 16.3363C17.7159 16.4524 17.507 16.7438 17.4947 17.0742C17.4772 17.5433 17.8328 17.9293 18.2736 17.9293C18.307 17.9293 18.4247 17.9293 18.4519 17.9293H20.0707L21.7278 17.929ZM20.4062 17.929H20.4795H20.4062Z" fill="#FDFCEF"/>
<path d="M22.4502 18.0443H21.7278C21.6683 18.0443 21.62 17.9926 21.62 17.9289C21.62 17.8652 21.6683 17.8135 21.7278 17.8135H22.4502C22.8207 17.8135 23.1219 17.4965 23.1219 17.1068C23.1219 16.7743 22.8976 16.4834 22.5884 16.4151C22.5332 16.4031 22.4961 16.3475 22.5032 16.2877C22.5069 16.2577 22.5093 16.2275 22.5093 16.1966C22.5093 15.7907 22.1955 15.4606 21.8098 15.4606C21.589 15.4606 21.3854 15.5676 21.2515 15.7545C21.2243 15.7924 21.178 15.8083 21.1353 15.7949C21.0923 15.7811 21.0619 15.7409 21.0585 15.6931C21.0423 15.4693 20.9429 15.2665 20.7786 15.1223C20.6113 14.9751 20.3974 14.9098 20.1791 14.9382C19.8458 14.9814 19.5702 15.2531 19.5092 15.5995C19.4902 15.7077 19.4908 15.8159 19.5111 15.9209C19.5208 15.9716 19.4979 16.0226 19.4552 16.0466C19.4126 16.0706 19.3604 16.0612 19.3269 16.0233C19.2407 15.9253 19.1236 15.8715 18.9977 15.8715C18.7622 15.8715 18.5658 16.0651 18.5502 16.3122C18.5481 16.3459 18.5325 16.3766 18.5073 16.3966C18.4823 16.4172 18.4504 16.4243 18.4196 16.4172C18.2906 16.3874 18.1686 16.3957 18.0467 16.4442C17.7912 16.5452 17.6126 16.7999 17.6023 17.0782C17.5952 17.2704 17.6603 17.4529 17.7852 17.5923C17.9135 17.7349 18.0868 17.8135 18.2736 17.8135H20.0707C20.1302 17.8135 20.1785 17.8652 20.1785 17.9289C20.1785 17.9926 20.1302 18.0443 20.0707 18.0443H18.2736C18.0277 18.0443 17.7992 17.9404 17.6299 17.7519C17.4636 17.5669 17.3776 17.3244 17.3871 17.0692C17.4007 16.6989 17.6357 16.3609 17.9719 16.228C18.0959 16.1791 18.2235 16.1613 18.3534 16.1733C18.4258 15.8664 18.6891 15.6408 18.9977 15.6408C19.0962 15.6408 19.1928 15.6645 19.2806 15.7084C19.2827 15.6578 19.2881 15.6073 19.2972 15.5568C19.3755 15.1126 19.7274 14.764 20.1533 14.7093C20.431 14.6719 20.702 14.7569 20.9153 14.944C21.0654 15.0757 21.1754 15.2522 21.2323 15.4472C21.3938 15.3074 21.5954 15.2301 21.8098 15.2301C22.3144 15.2301 22.7249 15.6638 22.7249 16.1968C22.7249 16.2031 22.7249 16.2093 22.7247 16.2153C23.0848 16.3394 23.3375 16.6996 23.3375 17.1068C23.3375 17.6236 22.9395 18.0443 22.4502 18.0443ZM20.4795 18.0443H20.4062C20.3467 18.0443 20.2984 17.9926 20.2984 17.9289C20.2984 17.8652 20.3467 17.8135 20.4062 17.8135H20.4795C20.539 17.8135 20.5873 17.8652 20.5873 17.9289C20.5873 17.9926 20.539 18.0443 20.4795 18.0443Z" fill="#472B29"/>
<path d="M22.1017 16.7657C22.0978 16.7657 22.0937 16.7652 22.0899 16.7643C22.0607 16.7574 22.0424 16.7265 22.0491 16.6953C22.0569 16.6591 22.0685 16.6233 22.0838 16.5899C22.208 16.319 22.5502 16.2191 22.8474 16.367C22.8743 16.3806 22.8862 16.4147 22.8735 16.4436C22.8607 16.4722 22.8286 16.4844 22.8019 16.4715C22.5573 16.3499 22.279 16.4256 22.1808 16.6404C22.1692 16.6658 22.1604 16.693 22.1545 16.7205C22.1487 16.7475 22.1265 16.7657 22.1017 16.7657ZM21.0492 18.0444H20.8232C20.7637 18.0444 20.7154 17.9927 20.7154 17.929C20.7154 17.8653 20.7637 17.8136 20.8232 17.8136H21.0492C21.1087 17.8136 21.157 17.8653 21.157 17.929C21.157 17.9927 21.1087 18.0444 21.0492 18.0444Z" fill="#472B29"/>
<g clip-path="url(#clip0_284_721)">
<rect x="7.42859" y="25.0715" width="19.5" height="21.3572" rx="3" fill="#FAFAFA"/>
<rect width="26.5525" height="0.0766286" rx="0.0383143" transform="matrix(0.612849 0.7902 -0.795767 0.605602 7.86588 25.8799)" fill="#BEBEBE"/>
<rect width="25.7188" height="0.0766286" rx="0.0383143" transform="matrix(0.612849 0.7902 -0.795767 0.605602 11.2383 25)" fill="#BEBEBE"/>
<rect width="3.3051" height="0.0746236" rx="0.0373118" transform="matrix(-0.751028 0.66027 -0.619202 -0.785232 9.64453 28.219)" fill="#BEBEBE"/>
<rect width="5.11821" height="0.0746236" rx="0.0373118" transform="matrix(-0.751028 0.66027 -0.619202 -0.785232 11.0062 29.8733)" fill="#BEBEBE"/>
<rect width="6.75813" height="0.0746236" rx="0.0373118" transform="matrix(-0.751028 0.66027 -0.619202 -0.785232 12.1731 31.5166)" fill="#BEBEBE"/>
<rect width="8.48659" height="0.0746236" rx="0.0373118" transform="matrix(-0.751028 0.66027 -0.619202 -0.785232 13.4745 33.1462)" fill="#BEBEBE"/>
<rect width="10.2586" height="0.0746236" rx="0.0373118" transform="matrix(-0.751028 0.66027 -0.619202 -0.785232 14.7507 34.7974)" fill="#BEBEBE"/>
<rect width="11.8971" height="0.0746236" rx="0.0373118" transform="matrix(-0.751028 0.66027 -0.619202 -0.785232 16.0281 36.4478)" fill="#BEBEBE"/>
<rect width="12.3922" height="0.0746236" rx="0.0373118" transform="matrix(-0.751028 0.66027 -0.619202 -0.785232 17.2959 38.0991)" fill="#BEBEBE"/>
<rect width="10.994" height="0.0746236" rx="0.0373118" transform="matrix(-0.751028 0.66027 -0.619202 -0.785232 18.5839 39.7402)" fill="#BEBEBE"/>
<rect width="8.49263" height="0.0746236" rx="0.0373118" transform="matrix(-0.751028 0.66027 -0.619202 -0.785232 19.8589 41.3926)" fill="#BEBEBE"/>
<rect width="5.9711" height="0.0746236" rx="0.0373118" transform="matrix(-0.751028 0.66027 -0.619202 -0.785232 21.1411 43.0386)" fill="#BEBEBE"/>
<rect width="6.55951" height="0.496214" rx="0.248107" transform="matrix(0.61567 0.788004 -0.754045 0.656822 18.0487 26.8069)" fill="#BEBEBE"/>
<rect width="6.55951" height="0.496214" rx="0.248107" transform="matrix(0.61567 0.788004 -0.754045 0.656822 18.6928 30.9016)" fill="#BEBEBE"/>
</g>
<defs>
<clipPath id="clip0_284_721">
<rect x="7.42859" y="25.0715" width="19.5" height="21.3572" rx="3" fill="white"/>
</clipPath>
</defs>
</svg>
