<svg width="90" height="75" viewBox="0 0 90 75" fill="none" xmlns="http://www.w3.org/2000/svg">
<path d="M85.718 44.534C86.036 43.881 86.3179 43.1941 86.5617 42.4744C89.3527 34.2382 85.1318 24.3717 76.2448 21.9899C75.2844 9.92283 66.8044 1.64529 57.2273 0.232312C46.2658 -1.38419 36.2245 5.57895 32.8833 16.6464C28.8564 15.2197 24.9323 15.3935 21.2339 17.5548C19.556 18.3308 18.0211 19.4756 16.6441 20.9818C14.6227 23.193 13.3083 25.984 12.773 28.9265C11.9801 29.0516 11.201 29.1767 10.4664 29.4396C6.18405 30.9755 3.48211 34.1364 2.74117 38.8979C2.28007 41.8628 3.21075 44.8202 3.73015 46.0148C5.78125 50.7371 10.5375 53.4136 15.37 52.7055C15.6106 52.6705 15.9604 52.7786 16.1671 52.9525C16.4226 60.4997 20.087 67.1745 25.5842 70.9873C34.4044 77.1056 45.7528 75.221 52.912 66.8311C55.9797 69.9687 59.6303 71.4929 63.9191 70.9396C68.1835 70.3895 71.4949 68.0363 73.9106 64.2097C75.0268 64.5097 76.0847 64.9421 77.1786 65.0619C81.4631 65.5304 84.9421 63.827 87.4945 59.9739C88.4719 58.4995 89.3951 56.5883 89.3951 53.2387C89.3962 49.7884 88.0245 46.6434 85.718 44.534Z" fill="#C7EDE6"/>
<path d="M11.1618 36.091H0.53C0.23744 36.091 0 35.8535 0 35.561C0 35.2684 0.23744 35.031 0.53 35.031H11.1618C11.4544 35.031 11.6918 35.2684 11.6918 35.561C11.6918 35.8535 11.4544 36.091 11.1618 36.091ZM14.2167 36.091H12.684C12.3914 36.091 12.154 35.8535 12.154 35.561C12.154 35.2684 12.3914 35.031 12.684 35.031H14.2167C14.5093 35.031 14.7467 35.2684 14.7467 35.561C14.7467 35.8535 14.5093 36.091 14.2167 36.091ZM18.514 36.091H15.8152C15.5226 36.091 15.2852 35.8535 15.2852 35.561C15.2852 35.2684 15.5226 35.031 15.8152 35.031H18.514C18.8065 35.031 19.044 35.2684 19.044 35.561C19.044 35.8535 18.8065 36.091 18.514 36.091ZM18.514 38.0689H8.321C8.02844 38.0689 7.791 37.8315 7.791 37.5389C7.791 37.2464 8.02844 37.0089 8.321 37.0089H18.514C18.8065 37.0089 19.044 37.2464 19.044 37.5389C19.044 37.8315 18.8065 38.0689 18.514 38.0689ZM6.48508 38.0689H5.87028C5.57772 38.0689 5.34028 37.8315 5.34028 37.5389C5.34028 37.2464 5.57772 37.0089 5.87028 37.0089H6.48508C6.77764 37.0089 7.01508 37.2464 7.01508 37.5389C7.01508 37.8315 6.77764 38.0689 6.48508 38.0689ZM3.96546 38.0689H2.4221C2.12954 38.0689 1.8921 37.8315 1.8921 37.5389C1.8921 37.2464 2.12954 37.0089 2.4221 37.0089H3.96546C4.25802 37.0089 4.49546 37.2464 4.49546 37.5389C4.49546 37.8315 4.25802 38.0689 3.96546 38.0689ZM13.6496 34.1151H8.321C8.02844 34.1151 7.791 33.8777 7.791 33.5851C7.791 33.2926 8.02844 33.0551 8.321 33.0551H13.6496C13.9422 33.0551 14.1796 33.2926 14.1796 33.5851C14.1796 33.8777 13.9422 34.1151 13.6496 34.1151ZM13.6496 32.1382H12.3172C12.0246 32.1382 11.7872 31.9008 11.7872 31.6082C11.7872 31.3157 12.0246 31.0782 12.3172 31.0782H13.6496C13.9422 31.0782 14.1796 31.3157 14.1796 31.6082C14.1796 31.9008 13.9422 32.1382 13.6496 32.1382ZM10.1845 40.0458H8.31994C8.02738 40.0458 7.78994 39.8084 7.78994 39.5158C7.78994 39.2233 8.02738 38.9858 8.31994 38.9858H10.1845C10.477 38.9858 10.7145 39.2233 10.7145 39.5158C10.7145 39.8084 10.4781 40.0458 10.1845 40.0458ZM70.5494 12.4318H59.9176C59.625 12.4318 59.3876 12.1943 59.3876 11.9018C59.3876 11.6092 59.625 11.3718 59.9176 11.3718H70.5494C70.8419 11.3718 71.0794 11.6092 71.0794 11.9018C71.0794 12.1943 70.843 12.4318 70.5494 12.4318ZM73.6032 12.4318H72.0715C71.779 12.4318 71.5415 12.1943 71.5415 11.9018C71.5415 11.6092 71.779 11.3718 72.0715 11.3718H73.6032C73.8958 11.3718 74.1332 11.6092 74.1332 11.9018C74.1332 12.1943 73.8968 12.4318 73.6032 12.4318ZM77.9015 12.4318H75.2028C74.9102 12.4318 74.6728 12.1943 74.6728 11.9018C74.6728 11.6092 74.9102 11.3718 75.2028 11.3718H77.9015C78.1941 11.3718 78.4315 11.6092 78.4315 11.9018C78.4315 12.1943 78.1941 12.4318 77.9015 12.4318ZM77.9015 14.4087H67.7086C67.416 14.4087 67.1786 14.1712 67.1786 13.8787C67.1786 13.5861 67.416 13.3487 67.7086 13.3487H77.9015C78.1941 13.3487 78.4315 13.5861 78.4315 13.8787C78.4315 14.1712 78.1941 14.4087 77.9015 14.4087ZM65.8726 14.4087H65.2578C64.9653 14.4087 64.7278 14.1712 64.7278 13.8787C64.7278 13.5861 64.9653 13.3487 65.2578 13.3487H65.8726C66.1652 13.3487 66.4026 13.5861 66.4026 13.8787C66.4026 14.1712 66.1663 14.4087 65.8726 14.4087ZM63.353 14.4087H61.8097C61.5171 14.4087 61.2797 14.1712 61.2797 13.8787C61.2797 13.5861 61.5171 13.3487 61.8097 13.3487H63.353C63.6456 13.3487 63.883 13.5861 63.883 13.8787C63.883 14.1712 63.6466 14.4087 63.353 14.4087ZM73.0372 10.4549H67.7086C67.416 10.4549 67.1786 10.2174 67.1786 9.92487C67.1786 9.63231 67.416 9.39487 67.7086 9.39487H73.0372C73.3297 9.39487 73.5672 9.63231 73.5672 9.92487C73.5672 10.2174 73.3308 10.4549 73.0372 10.4549ZM73.0372 8.47797H71.7048C71.4122 8.47797 71.1748 8.24053 71.1748 7.94797C71.1748 7.65541 71.4122 7.41797 71.7048 7.41797H73.0372C73.3297 7.41797 73.5672 7.65541 73.5672 7.94797C73.5672 8.24053 73.3308 8.47797 73.0372 8.47797ZM69.5731 16.3845H67.7086C67.416 16.3845 67.1786 16.1471 67.1786 15.8545C67.1786 15.5619 67.416 15.3245 67.7086 15.3245H69.5731C69.8657 15.3245 70.1031 15.5619 70.1031 15.8545C70.1031 16.1471 69.8657 16.3845 69.5731 16.3845Z" fill="white"/>
<path d="M70.1985 45.2856C70.1985 45.2856 81.4515 45.2856 81.5204 45.2856C84.1195 45.2856 86.2257 43.1794 86.2257 40.5803C86.2257 38.313 84.6219 36.4209 82.4871 35.9757C82.5115 35.7774 82.5284 35.576 82.5284 35.3715C82.5284 32.6801 80.3469 30.4976 77.6556 30.4976C76.0667 30.4976 74.659 31.2618 73.7696 32.4384C73.5417 29.4429 70.8663 27.131 67.7351 27.5137C65.4455 27.7935 63.5512 29.5637 63.1304 31.8311C62.9958 32.5582 63.0096 33.2642 63.1442 33.9267C62.5305 33.2652 61.657 32.8497 60.6829 32.8497C58.9021 32.8497 57.4478 34.2362 57.3333 35.9884C56.5245 35.8092 55.6447 35.8209 54.7183 36.1686C52.947 36.8332 51.6856 38.5006 51.6125 40.3906C51.5075 43.0755 53.653 45.2846 56.3136 45.2846C56.516 45.2846 57.2262 45.2846 57.3895 45.2846H67.1605" fill="#FDFCEF"/>
<path d="M81.5204 45.8155H70.1985C69.9059 45.8155 69.6685 45.5781 69.6685 45.2855C69.6685 44.993 69.9059 44.7555 70.1985 44.7555H81.5204C83.8227 44.7555 85.6946 42.8815 85.6946 40.5802C85.6946 38.6139 84.3007 36.8946 82.3779 36.4939C82.1076 36.4377 81.9263 36.1833 81.9603 35.9088C81.9825 35.7328 81.9974 35.5537 81.9974 35.3703C81.9974 32.9747 80.0491 31.0264 77.6535 31.0264C76.285 31.0264 75.0226 31.6582 74.1894 32.7585C74.0569 32.9344 73.8279 33.0086 73.6181 32.9471C73.4061 32.8846 73.2555 32.6991 73.2386 32.4797C73.1389 31.1663 72.4966 29.9336 71.4758 29.0972C70.4444 28.2524 69.1353 27.8803 67.7965 28.0404C65.7338 28.2937 64.0272 29.8922 63.6488 31.9295C63.5311 32.5666 63.5353 33.2037 63.6615 33.8227C63.7081 34.0559 63.5958 34.2912 63.3838 34.3993C63.1749 34.5096 62.9152 34.464 62.7531 34.2891C62.2093 33.704 61.4736 33.3817 60.6808 33.3817C59.1968 33.3817 57.9576 34.5435 57.8601 36.0254C57.8495 36.1791 57.7732 36.3211 57.6502 36.4133C57.5251 36.5077 57.3651 36.5384 57.2177 36.5077C56.4174 36.3307 55.6595 36.3858 54.9027 36.6667C53.3148 37.2624 52.2039 38.7687 52.1403 40.4138C52.0948 41.5628 52.5082 42.6493 53.3032 43.4761C54.0982 44.3029 55.1666 44.7577 56.3125 44.7577H67.1595C67.452 44.7577 67.6895 44.9951 67.6895 45.2877C67.6895 45.5802 67.452 45.8177 67.1595 45.8177H56.3136C54.8773 45.8177 53.5364 45.2474 52.54 44.2107C51.5436 43.174 51.0252 41.8119 51.0814 40.3724C51.163 38.3065 52.5495 36.4186 54.5317 35.6745C55.2949 35.3873 56.0835 35.2876 56.886 35.3788C57.2697 33.6245 58.8385 32.3207 60.6829 32.3207C61.3231 32.3207 61.9485 32.4807 62.5061 32.7786C62.5103 32.432 62.5442 32.0843 62.61 31.7366C63.0721 29.2499 65.1518 27.2973 67.6704 26.9889C69.2964 26.7864 70.8907 27.2465 72.15 28.2778C73.1029 29.0591 73.7866 30.1244 74.1078 31.301C75.083 30.4445 76.3295 29.9685 77.6567 29.9685C80.6363 29.9685 83.0605 32.3928 83.0605 35.3724C83.0605 35.4403 83.0584 35.5092 83.0563 35.5759C85.2261 36.2416 86.7568 38.2758 86.7568 40.5823C86.7557 43.4666 84.4067 45.8155 81.5204 45.8155Z" fill="#472B29"/>
<path d="M67.4722 34.9197C65.7317 34.8052 64.2339 36.0072 64.1258 37.6046C64.112 37.8029 64.1215 37.9979 64.1501 38.1876C63.8141 37.8082 63.317 37.5516 62.7467 37.5135C61.7026 37.4446 60.8005 38.1346 60.6702 39.0727C60.4804 39.0208 60.2822 38.9858 60.0766 38.972C58.5533 38.8724 57.2421 39.9239 57.1488 41.321" fill="#FDFCEF"/>
<path d="M57.1488 41.5873C57.1425 41.5873 57.1372 41.5873 57.1308 41.5862C56.9845 41.5767 56.8743 41.4505 56.8849 41.3043C56.9888 39.763 58.3954 38.5885 60.0935 38.7094C60.2175 38.7168 60.3426 38.7327 60.4688 38.756C60.7433 37.8232 61.71 37.1618 62.7647 37.2508C63.1633 37.2763 63.5375 37.3971 63.8608 37.5996C63.8608 37.5953 63.8608 37.5911 63.8618 37.5868C63.9784 35.8463 65.6129 34.515 67.4891 34.6549C67.6354 34.6644 67.7457 34.7906 67.7351 34.9368C67.7266 35.0768 67.61 35.1838 67.4711 35.1838C67.4658 35.1838 67.4595 35.1838 67.4531 35.1828C65.861 35.0831 64.4872 36.1728 64.3886 37.6218C64.377 37.7957 64.3844 37.9727 64.4109 38.1476C64.4289 38.2642 64.3674 38.3787 64.2614 38.4285C64.1533 38.4762 64.0272 38.4518 63.9498 38.3638C63.6435 38.0183 63.2099 37.8105 62.7276 37.7776C61.8372 37.7278 61.0433 38.3034 60.932 39.109C60.9203 39.1843 60.8779 39.2521 60.8154 39.2945C60.7528 39.3369 60.6755 39.3507 60.6002 39.3284C60.4189 39.2797 60.2366 39.2489 60.0575 39.2362C58.6763 39.1673 57.4955 40.0895 57.4117 41.3382C57.4032 41.4792 57.2877 41.5873 57.1488 41.5873Z" fill="#472B29"/>
<path d="M83.4252 36.5268C81.7896 35.7562 79.8986 36.301 79.2011 37.7458C79.1142 37.925 79.0505 38.1105 79.0081 38.2981" fill="#FDFCEF"/>
<path d="M79.0071 38.562C78.9869 38.562 78.9679 38.5599 78.9467 38.5546C78.8036 38.5218 78.7156 38.3797 78.7485 38.2366C78.7972 38.0278 78.8682 37.8232 78.9605 37.6303C79.7205 36.0573 81.7737 35.452 83.5365 36.2852C83.669 36.3488 83.7262 36.5056 83.6637 36.6381C83.6001 36.7717 83.44 36.8247 83.3107 36.7653C81.8066 36.0551 80.0713 36.547 79.4385 37.8593C79.3633 38.0161 79.3039 38.1847 79.2636 38.3564C79.2371 38.4794 79.1279 38.562 79.0071 38.562Z" fill="#472B29"/>
<path d="M67.9884 61.2238H27.0777C23.6772 61.2238 20.8958 58.4423 20.8958 55.0418V29.2298C20.8958 25.8293 23.6772 23.0479 27.0777 23.0479H67.9884C71.3889 23.0479 74.1703 25.8293 74.1703 29.2298V55.0418C74.1703 58.4423 71.3878 61.2238 67.9884 61.2238Z" fill="#FDFCEE"/>
<path d="M67.9873 61.9656H27.0777C23.2596 61.9656 20.1538 58.8587 20.1538 55.0416V29.2296C20.1538 25.4115 23.2606 22.3057 27.0777 22.3057H67.9884C71.8065 22.3057 74.9123 25.4125 74.9123 29.2296V55.0416C74.9123 58.8598 71.8055 61.9656 67.9873 61.9656ZM27.0777 23.7897C24.0779 23.7897 21.6378 26.2298 21.6378 29.2296V55.0416C21.6378 58.0414 24.0779 60.4816 27.0777 60.4816H67.9884C70.9882 60.4816 73.4283 58.0414 73.4283 55.0416V29.2296C73.4283 26.2298 70.9882 23.7897 67.9884 23.7897H27.0777Z" fill="#472B29"/>
<path d="M53.3668 29.2308H41.6994C41.216 29.2308 40.8195 28.8354 40.8195 28.351C40.8195 27.8676 41.2149 27.4712 41.6994 27.4712H53.3668C53.8501 27.4712 54.2466 27.8666 54.2466 28.351C54.2466 28.8354 53.8501 29.2308 53.3668 29.2308Z" fill="#A8DBDB"/>
<path d="M53.3668 29.7617H41.6994C40.9224 29.7617 40.2896 29.1289 40.2896 28.3519C40.2896 27.575 40.9224 26.9421 41.6994 26.9421H53.3668C54.1438 26.9421 54.7766 27.575 54.7766 28.3519C54.7766 29.1289 54.1438 29.7617 53.3668 29.7617ZM41.6994 28.0011C41.5096 28.0011 41.3496 28.1611 41.3496 28.3509C41.3496 28.5406 41.5096 28.7007 41.6994 28.7007H53.3668C53.5565 28.7007 53.7166 28.5406 53.7166 28.3509C53.7166 28.1611 53.5565 28.0011 53.3668 28.0011H41.6994Z" fill="#472B29"/>
<path d="M43.4049 13.6626H51.6602V29.2319H43.4049V13.6626Z" fill="#E1E0D8"/>
<path d="M51.6602 29.7618H43.4049C43.1123 29.7618 42.8749 29.5244 42.8749 29.2318V13.6626C42.8749 13.37 43.1123 13.1326 43.4049 13.1326H51.6602C51.9527 13.1326 52.1902 13.37 52.1902 13.6626V29.2318C52.1902 29.5244 51.9538 29.7618 51.6602 29.7618ZM43.9349 28.7018H51.1302V14.1926H43.9349V28.7018Z" fill="#472B29"/>
<path d="M51.3093 17.7786H43.7568C43.5808 17.7786 43.4388 17.6365 43.4388 17.4606C43.4388 17.2846 43.5808 17.1426 43.7568 17.1426H51.3093C51.4852 17.1426 51.6273 17.2846 51.6273 17.4606C51.6273 17.6365 51.4852 17.7786 51.3093 17.7786ZM47.5336 25.613C46.1397 25.613 45.0044 24.4788 45.0044 23.0839C45.0044 21.6889 46.1386 20.5547 47.5336 20.5547C48.9285 20.5547 50.0627 21.6889 50.0627 23.0839C50.0627 24.4788 48.9275 25.613 47.5336 25.613ZM47.5336 21.1907C46.4905 21.1907 45.6404 22.0408 45.6404 23.0839C45.6404 24.1269 46.4905 24.977 47.5336 24.977C48.5766 24.977 49.4267 24.1269 49.4267 23.0839C49.4267 22.0408 48.5766 21.1907 47.5336 21.1907Z" fill="#472B29"/>
<path d="M26.4586 33.0298H43.7568V55.5548H26.4586V33.0298Z" fill="#DCE0B1"/>
<path d="M43.7568 56.0848H26.4586C26.1661 56.0848 25.9286 55.8473 25.9286 55.5548V33.0298C25.9286 32.7372 26.1661 32.4998 26.4586 32.4998H43.7568C44.0494 32.4998 44.2868 32.7372 44.2868 33.0298V55.5548C44.2868 55.8473 44.0494 56.0848 43.7568 56.0848ZM26.9886 55.0248H43.2268V33.5598H26.9886V55.0248Z" fill="#472B29"/>
<path d="M40.456 42.4034C40.4104 42.2316 40.2853 42.1002 40.1464 42.0186C40.1337 42.0112 40.1199 42.0048 40.1062 41.9984C40.1104 41.9868 40.1146 41.9751 40.1178 41.9624C40.1655 41.8553 40.1878 41.7409 40.1835 41.619V41.5532C40.1825 41.3868 40.1433 41.2321 40.0669 41.089C40.0245 41.0296 39.9821 40.9702 39.9397 40.9109C39.9609 40.8897 39.9821 40.8664 40.0012 40.842C40.0775 40.7572 40.1295 40.6586 40.1581 40.5462C40.2026 40.4413 40.2217 40.33 40.2153 40.2123V40.1466C40.2111 39.9855 40.1708 39.836 40.0956 39.6993C40.05 39.6378 40.0044 39.5753 39.9588 39.5138C39.927 39.4809 39.8931 39.4534 39.8581 39.4269C39.8793 39.4099 39.9005 39.393 39.9217 39.376C40.0521 39.2509 40.1146 39.0601 40.1284 38.8746C40.1358 38.775 40.121 38.6817 40.0828 38.5937C40.0595 38.4973 40.015 38.4135 39.9493 38.3414C39.891 38.2683 39.821 38.2153 39.7405 38.1824C39.6663 38.1358 39.5846 38.1125 39.4977 38.1114H39.4384C39.432 38.1114 39.4267 38.1125 39.4203 38.1114C39.5041 37.9302 39.5454 37.7266 39.5274 37.539C39.4744 37.0048 39.0833 36.7048 38.6402 36.6635C38.6434 36.6348 38.6476 36.6073 38.6487 36.5776C38.6741 36.0169 38.2522 35.4455 37.7265 35.4455C37.5865 35.4455 37.4509 35.4752 37.3268 35.5303C37.2155 35.1222 36.8562 34.889 36.4682 34.889C36.3485 34.889 36.2372 34.9282 36.1386 34.9929C36.1365 34.9897 36.1365 34.9855 36.1343 34.9823C36.1004 34.9282 36.0665 34.8742 36.0326 34.8212C35.9181 34.6685 35.74 34.5943 35.5672 34.5742C35.4718 34.5647 35.3828 34.5806 35.298 34.624C35.21 34.6495 35.1326 34.6982 35.0659 34.7703C35.0192 34.8138 34.9811 34.8646 34.9524 34.9208C34.9228 34.8646 34.8857 34.8138 34.839 34.7703C34.7722 34.6982 34.6949 34.6495 34.6069 34.624C34.5221 34.5806 34.432 34.5647 34.3376 34.5742C34.1649 34.5943 33.9868 34.6685 33.8723 34.8212C33.8384 34.8752 33.8045 34.9293 33.7705 34.9823C33.7684 34.9855 33.7674 34.9897 33.7663 34.9929C33.6677 34.9282 33.5564 34.889 33.4366 34.889C33.0487 34.889 32.6904 35.1222 32.578 35.5303C32.454 35.4763 32.3183 35.4455 32.1784 35.4455C31.6527 35.4455 31.2308 36.0169 31.2562 36.5776C31.2573 36.6073 31.2615 36.6348 31.2647 36.6635C30.8216 36.7048 30.4315 37.0048 30.3775 37.539C30.3584 37.7256 30.3997 37.9302 30.4845 38.1114C30.4782 38.1114 30.4729 38.1104 30.4665 38.1114H30.4072C30.3202 38.1125 30.2386 38.1358 30.1644 38.1824C30.0828 38.2142 30.0139 38.2672 29.9556 38.3414C29.8899 38.4135 29.8464 38.4973 29.822 38.5937C29.7849 38.6817 29.769 38.776 29.7765 38.8746C29.7913 39.0601 29.8528 39.2509 29.9832 39.376C30.0044 39.393 30.0256 39.4099 30.0468 39.4269C30.0118 39.4523 29.9779 39.4809 29.9461 39.5138C29.9005 39.5753 29.8549 39.6378 29.8093 39.6993C29.733 39.8371 29.6938 39.9855 29.6895 40.1466V40.2123C29.6832 40.33 29.7023 40.4413 29.7468 40.5462C29.7754 40.6586 29.8284 40.7572 29.9037 40.842C29.9227 40.8674 29.9439 40.8897 29.9651 40.9109C29.9227 40.9702 29.8803 41.0296 29.8379 41.089C29.7616 41.2321 29.7235 41.3868 29.7213 41.5532V41.619C29.7171 41.7409 29.7383 41.8553 29.7871 41.9624C29.7902 41.9751 29.7955 41.9857 29.7987 41.9984C29.7849 42.0048 29.7722 42.0101 29.7584 42.0186C29.6196 42.1002 29.4945 42.2316 29.4479 42.4034C29.4044 42.5677 29.4023 42.7468 29.4733 42.9037C29.4934 42.9482 29.5136 42.9917 29.5327 43.0362C29.6026 43.192 29.7298 43.3234 29.8793 43.3796C29.9418 43.4061 30.0044 43.4157 30.069 43.4125C30.0786 43.4612 30.0945 43.5079 30.1188 43.5513C30.1453 43.6277 30.1888 43.6923 30.2471 43.7443C30.3012 43.7994 30.3626 43.8375 30.4315 43.8577C30.4983 43.8905 30.5683 43.9033 30.6414 43.8948C30.6573 43.8927 30.6743 43.8905 30.6902 43.8874C30.6266 44.004 30.5895 44.1343 30.5895 44.2764V44.3421C30.5863 44.447 30.6064 44.5446 30.6499 44.6347C30.6785 44.7301 30.7262 44.8117 30.7951 44.8806C30.8577 44.9527 30.9308 45.0025 31.0145 45.0322C31.094 45.0767 31.1788 45.0968 31.2689 45.0936C31.3294 45.0841 31.3887 45.0756 31.4491 45.0661C31.4672 45.0608 31.4841 45.0523 31.5011 45.0459C31.5043 45.1117 31.5159 45.1763 31.5371 45.2389C31.5562 45.3491 31.5997 45.4487 31.6654 45.5367C31.7279 45.6321 31.8053 45.7042 31.9007 45.7519C31.9887 45.8187 32.0862 45.8568 32.1954 45.8664C32.2632 45.8653 32.33 45.8632 32.3978 45.8621C32.4561 45.8526 32.5102 45.8346 32.5632 45.8123C32.5844 45.8632 32.612 45.9098 32.6459 45.9533C32.701 46.0339 32.7699 46.0943 32.8526 46.1346C32.93 46.1907 33.0158 46.2225 33.1102 46.2289C33.1716 46.2268 33.2331 46.2236 33.2946 46.2215C33.3783 46.2045 33.4568 46.1727 33.5278 46.125C33.6826 46.408 33.9529 46.6126 34.3376 46.6126C34.5963 46.6126 34.7987 46.5193 34.9471 46.3731C35.0955 46.5193 35.2969 46.6126 35.5566 46.6126C35.9414 46.6126 36.2117 46.408 36.3665 46.125C36.4375 46.1717 36.5159 46.2045 36.5997 46.2215C36.6612 46.2236 36.7226 46.2268 36.7841 46.2289C36.8785 46.2225 36.9643 46.1907 37.0417 46.1346C37.1244 46.0943 37.1922 46.0339 37.2484 45.9533C37.2834 45.9098 37.3099 45.8621 37.3311 45.8123C37.3841 45.8346 37.4392 45.8526 37.4964 45.8621C37.5643 45.8632 37.6311 45.8653 37.6989 45.8664C37.807 45.8568 37.9056 45.8187 37.9936 45.7519C38.0879 45.7042 38.1664 45.6321 38.2289 45.5367C38.2957 45.4487 38.3381 45.3491 38.3572 45.2389C38.3784 45.1763 38.39 45.1117 38.3932 45.0459C38.4102 45.0534 38.4271 45.0608 38.4451 45.0661C38.5056 45.0756 38.5649 45.0841 38.6253 45.0936C38.7165 45.0979 38.8013 45.0767 38.8797 45.0322C38.9635 45.0035 39.0366 44.9527 39.0992 44.8806C39.1681 44.8117 39.2158 44.7301 39.2444 44.6347C39.2878 44.5446 39.308 44.447 39.3048 44.3421V44.2764C39.3048 44.1343 39.2677 44.004 39.2041 43.8874C39.22 43.8905 39.237 43.8927 39.2529 43.8948C39.3271 43.9022 39.397 43.8895 39.4627 43.8577C39.5327 43.8375 39.5942 43.8004 39.6472 43.7443C39.7055 43.6913 39.7489 43.6277 39.7754 43.5513C39.7998 43.5079 39.8157 43.4612 39.8253 43.4125C39.8899 43.4167 39.9525 43.4061 40.015 43.3796C40.1655 43.3224 40.2917 43.192 40.3616 43.0362C40.3818 42.9917 40.4019 42.9482 40.421 42.9037C40.5015 42.7468 40.4994 42.5677 40.456 42.4034Z" fill="#472B29"/>
<path d="M40.9817 51.5682C40.7125 51.3774 37.259 50.1669 37.259 50.1669C37.0396 50.1075 36.9177 49.9284 36.8785 49.727C36.7682 49.1588 36.7809 47.7914 36.7841 47.5476C36.7841 47.5285 36.7672 47.5137 36.7449 47.5137H36.6145H33.4123H33.2819C33.2607 47.5137 33.2427 47.5285 33.2427 47.5476C33.2448 47.7893 33.2564 49.1281 33.1483 49.727C33.1123 49.9284 32.9872 50.1075 32.7678 50.1669L29.945 51.1484C29.662 51.2269 29.3906 51.3382 29.1521 51.495C27.9056 52.3102 27.8706 54.7397 27.8186 54.9877C27.8144 55.0089 27.8324 55.028 27.8568 55.028H35.0129H42.1689C42.1933 55.028 42.2113 55.0089 42.2071 54.9877C42.1583 54.746 42.1403 52.3876 40.9817 51.5682Z" fill="#A3754F"/>
<path d="M36.746 47.5146C36.7672 47.5146 36.7852 47.5294 36.7841 47.5485C36.7809 47.7923 36.7682 49.1597 36.8785 49.7279C36.9177 49.9293 37.0396 50.1084 37.259 50.1678C37.259 50.1678 40.7125 51.3783 40.9807 51.5691C42.1392 52.3885 42.1573 54.748 42.2071 54.9887C42.2113 55.0099 42.1933 55.0289 42.1689 55.0289H35.0129H27.8568C27.8324 55.0289 27.8144 55.0099 27.8186 54.9887C27.8706 54.7406 27.9066 52.3111 29.1521 51.496C29.3906 51.3401 29.662 51.2278 29.945 51.1493L32.7678 50.1678C32.9872 50.1084 33.1123 49.9293 33.1483 49.7279C33.2564 49.13 33.2458 47.7902 33.2427 47.5485C33.2427 47.5294 33.2596 47.5146 33.2819 47.5146H33.4123H36.6145H36.746ZM36.746 47.0376H36.6156H33.4133H33.2829H33.0847L32.9151 47.1902L32.7752 47.3312L32.7678 47.5517C32.7752 48.2873 32.7572 49.2223 32.6809 49.6431C32.6756 49.6696 32.666 49.7014 32.6459 49.7067L29.7902 50.6988C29.4691 50.7868 29.1574 50.9236 28.8935 51.0963C27.6236 51.9263 27.4392 53.9647 27.3692 54.7311C27.3618 54.8085 27.3575 54.8657 27.3522 54.8975L27.3183 55.1084L27.4572 55.3151C27.5558 55.436 27.702 55.5049 27.8589 55.5049H35.015H42.171H42.3979L42.5728 55.3151C42.6703 55.1964 42.7074 55.0417 42.6767 54.8911C42.6735 54.8668 42.6692 54.8074 42.6618 54.7279C42.5993 53.9848 42.4329 52.0101 41.2584 51.179C40.9764 50.9797 38.7313 50.1773 37.4191 49.7173C37.3629 49.7003 37.3512 49.6516 37.3491 49.6367C37.2728 49.2435 37.2548 48.3032 37.2632 47.5538L37.2654 47.3545L37.1159 47.1902L36.976 47.0482L36.746 47.0376Z" fill="#472B29"/>
<path d="M40.4867 43.2673C40.5482 43.0563 40.6001 42.8496 40.6733 42.644C40.7687 42.3747 40.7008 42.203 40.403 42.0366C40.3892 42.0292 40.3775 42.0196 40.3669 42.0112C40.3192 42.0037 40.2736 41.9974 40.2344 41.9931C39.9662 41.9613 39.4903 41.9476 39.3514 41.6688C39.1946 41.3518 39.2719 41.0158 39.3133 40.6819C39.3578 40.3141 39.22 39.9601 39.2189 39.5933C39.1946 39.5573 39.1765 39.5149 39.1712 39.464C39.1161 38.9223 38.9582 38.405 38.7472 37.9047C38.0063 36.9221 36.6219 36.2585 35.0372 36.2585C32.6745 36.2585 30.7527 37.7319 30.7527 39.5435C30.7527 39.6293 30.758 39.7141 30.7665 39.7979C30.7432 40.1254 30.7124 40.4169 30.7273 40.7752C30.7411 41.0921 30.6944 41.3275 30.7252 41.7462C30.7421 41.9825 30.6351 41.8299 30.2577 41.849C30.2089 41.849 30.1634 41.849 30.1167 41.8522C29.7033 41.8797 29.3694 42.1458 29.2973 42.4754C29.3482 42.5062 29.3885 42.556 29.4065 42.6302C29.557 43.2418 29.5358 43.9488 29.8411 44.5181C30.0118 44.835 30.2768 44.8795 30.5503 45.0841C30.7018 45.1975 30.7305 45.3258 30.7718 45.4954C30.9244 46.124 31.3506 46.6571 31.8159 47.1129C32.0523 47.344 32.3056 47.5518 32.5611 47.7617C32.7731 47.9355 32.9957 48.1369 33.2586 48.2408C33.3465 48.2758 33.4006 48.3372 33.4271 48.4072C33.6009 48.5005 33.8479 48.6319 33.8479 48.6298C34.6896 48.9679 35.4962 48.9966 36.3485 48.6139C36.3485 48.6171 36.3485 48.6203 36.3485 48.6234C36.3527 48.6203 36.7629 48.422 36.9304 48.3298C36.9431 48.3118 36.959 48.2938 36.9792 48.2768C37.2367 48.0585 37.5229 47.8761 37.789 47.6673C38.0074 47.4956 38.1865 47.3059 38.355 47.0992C38.3158 47.0101 38.4027 47.0864 38.4833 46.9932C38.8607 46.5543 39.2158 45.8632 39.2772 45.3003C39.2804 45.2717 39.3016 45.2505 39.3165 45.2293C39.2677 45.0735 39.3885 44.9876 39.6122 44.9823C39.8136 44.977 39.9334 44.7491 40.0881 44.6389C40.2026 44.1958 40.3595 43.704 40.4867 43.2673Z" fill="#A3754F"/>
<path opacity="0.8" d="M39.4649 42.8984C39.4702 42.8264 39.4712 42.7553 39.4627 42.6843L39.997 42.7882L39.803 43.7581L39.5878 43.7189L39.7405 42.9525L39.4649 42.8984Z" fill="#8E7469"/>
<path d="M40.1867 41.8596C40.0033 41.813 39.8083 41.8088 39.6016 41.7833C39.6016 41.7611 39.5486 41.8066 39.5486 41.7844C39.4182 41.7717 39.3493 41.6179 39.3472 41.4568C39.343 41.1325 39.3027 40.7763 39.3324 40.4361C39.3408 40.1287 39.2857 39.9326 39.2264 39.7153C39.2359 39.6262 39.2412 39.5361 39.2412 39.4449C39.2412 37.5836 37.3194 36.0688 34.9567 36.0688C32.5939 36.0688 30.6722 37.5836 30.6722 39.4449C30.6722 39.5329 30.6775 39.6198 30.6859 39.7068C30.6626 40.0428 30.6319 40.3428 30.6467 40.7116C30.6605 41.0371 30.6139 41.2798 30.6446 41.7102C30.6616 41.9529 30.5545 41.796 30.1771 41.8151C30.1284 41.8151 30.0828 41.8162 30.0362 41.8183C29.5242 41.8533 29.132 42.2656 29.2136 42.7108C29.3079 43.227 29.4203 43.7401 29.5486 44.2499C29.6747 44.7545 29.9238 45.1668 30.528 45.2262C30.6054 45.8823 30.7453 46.2152 31.1576 46.7324C31.7194 47.4352 32.3851 48.0331 33.1897 48.4698C33.2734 48.5154 33.7674 48.7889 33.7674 48.7846C34.609 49.1323 35.4157 49.162 36.2679 48.7676C36.2679 48.7708 36.2679 48.774 36.2679 48.7772C36.2732 48.774 36.8043 48.5101 36.9039 48.4422C37.3078 48.1709 37.719 47.8995 38.0741 47.5751C38.778 46.9317 39.4426 46.2512 39.5126 45.223C40.1093 45.169 40.3574 44.7619 40.4846 44.2701C40.6097 43.7878 40.6998 43.297 40.8005 42.8094C40.899 42.3409 40.6722 41.9826 40.1867 41.8596ZM30.528 44.8711C30.2291 44.8785 30.0309 44.7609 29.9259 44.4259C29.7818 43.9669 29.5676 43.0097 29.5655 43.0023C29.3397 42.3048 29.7669 41.9953 30.528 42.1416V42.5465C30.5248 42.5465 30.5206 42.8825 30.528 42.8846V44.8711ZM39.1829 45.3502C39.1808 45.5315 39.1511 45.735 39.0599 45.8887C38.2247 47.3027 37.0491 48.3309 35.3648 48.739C34.7807 48.8811 34.2327 48.6775 33.725 48.4337C32.6607 47.9239 31.8085 47.1745 31.1576 46.2205C30.9446 45.9078 30.8301 45.5728 30.8471 45.188C30.8683 44.6803 30.8524 44.1715 30.8524 43.6637C30.8524 43.6012 30.8577 43.5387 30.8513 43.4761C30.7262 42.0812 31.0167 39.4958 31.0167 39.4449C31.0167 37.7648 32.7837 36.3974 34.9567 36.3974C37.1286 36.3974 38.9677 37.7648 38.9677 39.4449C38.9677 39.4789 38.9815 39.5202 38.9804 39.5541C39.1299 39.6962 39.0197 41.0551 39.1744 41.7399C39.1914 41.8172 39.1893 41.8999 39.1893 41.9794C39.1893 43.103 39.1946 44.2266 39.1829 45.3502ZM40.5217 42.6928C40.4114 43.2779 40.2758 43.8599 40.1115 44.4333C40.0192 44.7577 39.8443 44.8552 39.5126 44.8859V42.8889C39.5126 42.8889 39.5136 42.8889 39.5147 42.8878C39.5147 42.8815 39.5136 42.8762 39.5136 42.8687V42.4469C39.5115 42.4458 39.5094 42.4447 39.5062 42.4437V42.1066C39.6843 42.1066 39.8507 42.096 40.0139 42.1087C40.3457 42.1363 40.581 42.378 40.5217 42.6928Z" fill="#472B29"/>
<path opacity="0.8" d="M30.6054 43.0721C30.6001 42.9969 30.599 42.9216 30.6075 42.8474L30.0457 42.9555L30.2492 43.9753L30.476 43.9339L30.3149 43.1283L30.6054 43.0721Z" fill="#8E7469"/>
<path opacity="0.49" d="M34.9938 44.8627C35.2779 44.8627 35.5524 44.7386 35.7305 44.5309C35.7485 44.5097 35.7464 44.4789 35.7252 44.4609C35.704 44.4429 35.6732 44.445 35.6552 44.4662C35.511 44.6316 35.2704 44.7259 34.9948 44.7259C34.7192 44.7259 34.4786 44.6316 34.3344 44.4662C34.3249 44.4546 34.3111 44.4493 34.2963 44.4493C34.2846 44.4493 34.273 44.4535 34.2634 44.4609C34.2422 44.4789 34.2401 44.5107 34.2581 44.5309C34.4352 44.7386 34.7108 44.8627 34.9938 44.8627Z" fill="#472B29"/>
<path d="M34.0885 41.0264L34.2687 40.6808C33.5066 40.5027 32.63 40.5303 31.906 40.755L32.1328 41.0921C32.7286 40.896 33.46 40.8706 34.0885 41.0264ZM37.9024 41.0264L38.0826 40.6808C37.3205 40.5027 36.4439 40.5303 35.7199 40.755L35.9467 41.0921C36.5414 40.896 37.2738 40.8706 37.9024 41.0264ZM32.9925 41.515C32.8091 41.515 32.6491 41.6359 32.5558 41.8192C32.5791 41.8118 32.6024 41.8065 32.6279 41.8065C32.7784 41.8065 32.8992 41.9422 32.8992 42.1097C32.8992 42.2772 32.7773 42.4129 32.6279 42.4129C32.5791 42.4129 32.5335 42.3969 32.4932 42.3715C32.5579 42.646 32.7561 42.8464 32.9914 42.8464C33.2787 42.8464 33.5119 42.5485 33.5119 42.1807C33.5119 41.8129 33.2798 41.515 32.9925 41.515ZM36.9739 41.515C36.818 41.515 36.6781 41.603 36.5827 41.7429C36.6124 41.7302 36.6442 41.7228 36.6781 41.7228C36.8286 41.7228 36.9495 41.8585 36.9495 42.026C36.9495 42.1934 36.8276 42.3291 36.6781 42.3291C36.5848 42.3291 36.5032 42.2772 36.4545 42.1966C36.4608 42.557 36.6908 42.8464 36.9739 42.8464C37.2611 42.8464 37.4943 42.5485 37.4943 42.1807C37.4943 41.8129 37.2622 41.515 36.9739 41.515Z" fill="#472B29"/>
<path opacity="0.49" d="M37.1954 45.6342C37.2166 45.6172 37.2198 45.5854 37.2028 45.5642C37.1858 45.543 37.154 45.5398 37.1328 45.5568C36.6633 45.931 35.8842 46.1451 34.9948 46.1451C34.1055 46.1451 33.3264 45.931 32.8568 45.5568C32.8473 45.5494 32.8367 45.5462 32.8261 45.5462C32.8112 45.5462 32.7974 45.5525 32.7868 45.5653C32.7699 45.5865 32.7731 45.6183 32.7943 45.6352C33.3243 46.0677 34.1468 46.3263 34.9948 46.3263C35.8428 46.3263 36.6654 46.0677 37.1954 45.6342Z" fill="#472B29"/>
<path d="M41.0305 51.53C40.7602 51.336 40.4485 51.194 40.1189 51.1018L39.7723 51.0085C39.7744 51.0074 39.7765 51.0074 39.7797 51.0064L37.9703 50.4106C37.0523 50.6608 36.0676 50.7975 35.0415 50.7975C34.0154 50.7975 33.0306 50.6597 32.1127 50.4106L30.3033 51.0064C30.3054 51.0074 30.3086 51.0074 30.3107 51.0085L29.9545 51.1039C29.6705 51.1834 29.398 51.2968 29.1595 51.4558C27.9087 52.2837 27.8727 54.7344 27.8207 54.9867C27.8165 55.0079 27.8345 55.028 27.8589 55.028H35.0415H42.224C42.2484 55.028 42.2664 55.0089 42.2622 54.9867C42.2113 54.7418 42.1922 52.3621 41.0305 51.53Z" fill="#9DAA39"/>
<path d="M30.8799 40.4466C31.075 39.5435 31.394 38.67 31.8297 37.8644C31.6929 37.6577 31.4385 37.6037 31.2022 37.663C30.5026 38.7803 30.3436 40.1922 30.3266 41.1769C30.3605 41.7525 30.4506 42.3175 30.6202 42.8273C30.757 42.0429 30.7093 41.2363 30.8799 40.4466ZM39.0589 40.4466C38.8638 39.5435 38.5448 38.67 38.1091 37.8644C38.2459 37.6577 38.5003 37.6037 38.7366 37.663C39.4362 38.7803 39.5952 40.1922 39.6122 41.1769C39.5783 41.7525 39.4882 42.3175 39.3186 42.8273C39.1808 42.0429 39.2295 41.2363 39.0589 40.4466Z" fill="#472B29"/>
<path d="M39.7224 40.6999C39.9185 38.6636 39.3302 37.5019 38.8978 36.9284C37.8473 36.0582 36.4502 35.5271 34.9164 35.5271C33.637 35.5271 32.454 35.897 31.4873 36.5235C30.6743 37.3524 29.7192 38.865 30.2005 40.6988C30.2344 41.2744 30.4432 42.875 30.6128 43.3849C30.7495 42.6005 30.7018 40.7593 30.8725 39.9696C30.9976 39.3897 31.1746 38.8226 31.3993 38.2778C32.542 37.0185 37.2897 37.0758 38.5236 38.2778C38.7494 38.8226 38.9253 39.3897 39.0504 39.9696C39.2211 40.7603 39.1734 42.6015 39.3101 43.3849C39.4797 42.8761 39.6885 41.2755 39.7224 40.6999Z" fill="#472B29"/>
<path d="M34.4712 41.7696C33.655 40.7753 30.5778 41.4802 30.5746 41.4802C30.6308 41.7049 30.6806 41.9265 30.7241 42.1459C30.9531 42.1692 30.9658 42.6822 30.9891 42.8709C31.0993 43.7783 31.7067 44.4461 32.984 44.4153C34.2645 44.3486 34.5634 43.4221 34.6164 42.8381C34.6747 42.201 34.4701 41.7717 34.4712 41.7696ZM34.3249 42.8836C34.2592 43.6967 33.7599 44.1726 32.9533 44.2108C32.8717 44.215 32.7922 44.2161 32.7158 44.2129C31.4438 44.2108 31.2265 43.0978 31.2011 42.3939C31.1852 41.9911 31.4725 41.6466 31.8784 41.6063C32.1116 41.583 32.3745 41.583 32.6777 41.583C33.6274 41.583 34.0419 41.8099 34.1511 41.9911C34.2179 42.1003 34.362 42.4427 34.3249 42.8836ZM35.3722 42.8381C35.4252 43.4211 35.7241 44.3486 37.0046 44.4153C38.2819 44.4471 38.8893 43.7783 38.9995 42.8709C39.0218 42.6833 39.0356 42.1703 39.2645 42.1459C39.309 41.9265 39.3578 41.7049 39.414 41.4802C39.4108 41.4813 36.3336 40.7753 35.5174 41.7696C35.5185 41.7717 35.3139 42.201 35.3722 42.8381ZM35.8354 41.9922C35.9457 41.8099 36.3591 41.5841 37.3088 41.5841C37.612 41.5841 37.8749 41.5841 38.1081 41.6074C38.514 41.6477 38.8013 41.9922 38.7854 42.395C38.76 43.0988 38.5427 44.2118 37.2707 44.2139C37.1954 44.2171 37.1148 44.2161 37.0332 44.2118C36.2266 44.1726 35.7273 43.6967 35.6616 42.8847C35.6266 42.4427 35.7708 42.1003 35.8354 41.9922Z" fill="#F1BC19"/>
<path d="M35.546 42.5508C35.546 42.5508 35.3372 42.3865 34.9726 42.3865C34.6302 42.3865 34.4426 42.5508 34.4426 42.5508C34.3864 42.3971 34.3313 42.2423 34.2751 42.0886C34.7553 42.0886 35.2344 42.0886 35.7146 42.0886C35.6573 42.2434 35.6022 42.3971 35.546 42.5508Z" fill="#F1BC19"/>
<path d="M35.0054 50.9586C34.0313 50.9586 32.8929 50.8007 31.8837 50.524C31.7989 50.5017 31.7481 50.4138 31.7724 50.329C31.7947 50.2442 31.8837 50.1943 31.9675 50.2177C32.9522 50.4858 34.0599 50.6395 35.0065 50.6395C35.3722 50.6395 35.7464 50.6205 36.1206 50.5844C36.2128 50.5876 36.2859 50.6406 36.2944 50.7275C36.3029 50.8144 36.2382 50.8929 36.1513 50.9014C35.7676 50.9385 35.3817 50.9586 35.0054 50.9586ZM36.8636 50.8049C36.7873 50.8049 36.7195 50.7487 36.7067 50.6713C36.693 50.5844 36.7523 50.5028 36.8382 50.488L37.2664 50.4085C37.3576 50.3851 37.4371 50.4456 37.4551 50.5304C37.4742 50.6162 37.4191 50.701 37.3332 50.719L36.8901 50.8028C36.8806 50.8038 36.8721 50.8049 36.8636 50.8049Z" fill="#472B29"/>
<path d="M30.7972 65.5325C32.6098 65.5325 34.1829 65.5325 34.2051 65.5325C36.2361 65.5325 37.8823 63.9213 37.8823 61.9327C37.8823 60.1986 36.6294 58.7517 34.9609 58.4103C34.98 58.2588 34.9938 58.1051 34.9938 57.9482C34.9938 55.8897 33.2882 54.2202 31.1852 54.2202C29.9429 54.2202 28.8437 54.8042 28.1483 55.7052C27.9702 53.4135 25.8788 51.6454 23.4313 51.938C21.642 52.1521 20.1623 53.5057 19.8326 55.2409C19.7266 55.7974 19.7383 56.337 19.8432 56.8437C19.363 56.338 18.6804 56.02 17.9204 56.02C16.5286 56.02 15.3923 57.0811 15.3022 58.4209C14.6704 58.2842 13.9825 58.2927 13.2585 58.5587C11.8741 59.0675 10.8883 60.3427 10.8311 61.7886C10.7495 63.8418 12.4253 65.5325 14.5061 65.5325C14.664 65.5325 15.2195 65.5325 15.3477 65.5325H22.984H30.7972ZM24.5623 65.5325H24.9089H24.5623Z" fill="#FDFCEF"/>
<path d="M34.2041 66.0636H30.7962C30.5036 66.0636 30.2662 65.8262 30.2662 65.5336C30.2662 65.2411 30.5036 65.0036 30.7962 65.0036H34.2041C35.9393 65.0036 37.3512 63.6267 37.3512 61.9339C37.3512 60.4891 36.3008 59.2256 34.8549 58.9309C34.5825 58.8747 34.3991 58.6182 34.4352 58.3426C34.4521 58.2133 34.4627 58.0829 34.4627 57.9483C34.4627 56.1855 32.9915 54.7503 31.1842 54.7503C30.1475 54.7503 29.1935 55.2156 28.566 56.0286C28.4324 56.2025 28.2024 56.2724 27.9957 56.2131C27.7858 56.1495 27.6353 55.965 27.6194 55.7467C27.5441 54.7789 27.082 53.9012 26.3177 53.2737C25.5301 52.6292 24.5295 52.343 23.4928 52.4638C21.9293 52.6515 20.6382 53.8344 20.352 55.3396C20.263 55.8081 20.2662 56.2788 20.3605 56.7356C20.4093 56.9678 20.2969 57.2031 20.087 57.3133C19.8782 57.4225 19.6217 57.3801 19.4574 57.2073C19.0535 56.7833 18.5076 56.5491 17.9183 56.5491C16.819 56.5491 15.9011 57.3865 15.829 58.456C15.8184 58.6108 15.7421 58.7518 15.6191 58.844C15.4962 58.9362 15.3403 58.9722 15.1888 58.9383C14.5824 58.809 14.01 58.845 13.4408 59.056C12.243 59.4948 11.4077 60.6015 11.36 61.8088C11.3272 62.6388 11.6282 63.4274 12.208 64.0316C12.8091 64.6581 13.6253 65.0026 14.504 65.0026H22.9819C23.2744 65.0026 23.5119 65.24 23.5119 65.5326C23.5119 65.8251 23.2744 66.0626 22.9819 66.0626H14.504C13.3507 66.0626 12.2345 65.5909 11.4438 64.7662C10.6615 63.9521 10.2555 62.8879 10.3 61.7675C10.3647 60.1361 11.4798 58.6468 13.0741 58.0606C13.6571 57.8476 14.2591 57.767 14.8633 57.819C15.2153 56.4749 16.4608 55.4891 17.9183 55.4891C18.3751 55.4891 18.8235 55.5887 19.2337 55.7742C19.2454 55.5643 19.2698 55.3534 19.31 55.1414C19.681 53.1868 21.3484 51.6529 23.3656 51.4113C24.6885 51.248 25.9774 51.6222 26.9897 52.4532C27.6978 53.0341 28.2045 53.7835 28.4716 54.6241C29.2327 54.022 30.1782 53.6892 31.1831 53.6892C33.5755 53.6892 35.5217 55.5993 35.5217 57.9472C35.5217 57.9684 35.5217 57.9896 35.5206 58.0108C37.2209 58.561 38.4112 60.1425 38.4112 61.9328C38.4112 64.2118 36.5244 66.0636 34.2041 66.0636ZM24.9079 66.0636H24.5623C24.2698 66.0636 24.0323 65.8262 24.0323 65.5336C24.0323 65.2411 24.2698 65.0036 24.5623 65.0036H24.9079C25.2005 65.0036 25.4379 65.2411 25.4379 65.5336C25.4379 65.8262 25.2005 66.0636 24.9079 66.0636Z" fill="#472B29"/>
<path d="M32.5611 60.453C32.542 60.453 32.5229 60.4508 32.5028 60.4466C32.3597 60.4148 32.2696 60.2728 32.3024 60.1297C32.3385 59.9685 32.3946 59.8117 32.4667 59.6633C33.0571 58.4718 34.68 58.034 36.0813 58.6838C36.2149 58.7453 36.2732 58.9022 36.2106 59.0347C36.1492 59.1672 35.9891 59.2255 35.8598 59.164C34.7107 58.6329 33.4038 58.9626 32.9416 59.8975C32.8875 60.0078 32.8462 60.1254 32.8197 60.2452C32.7911 60.3692 32.6819 60.453 32.5611 60.453ZM27.595 66.0635H26.5297C26.2371 66.0635 25.9997 65.8261 25.9997 65.5335C25.9997 65.241 26.2371 65.0035 26.5297 65.0035H27.595C27.8875 65.0035 28.125 65.241 28.125 65.5335C28.125 65.8261 27.8875 66.0635 27.595 66.0635ZM69.0431 34.6716H49.2147C49.0388 34.6716 48.8967 34.5296 48.8967 34.3536C48.8967 34.1777 49.0388 34.0356 49.2147 34.0356H69.0431C69.219 34.0356 69.3611 34.1777 69.3611 34.3536C69.3611 34.5296 69.219 34.6716 69.0431 34.6716ZM69.0431 39.2657H49.2147C49.0388 39.2657 48.8967 39.1236 48.8967 38.9477C48.8967 38.7717 49.0388 38.6297 49.2147 38.6297H69.0431C69.219 38.6297 69.3611 38.7717 69.3611 38.9477C69.3611 39.1236 69.219 39.2657 69.0431 39.2657ZM66.215 43.8597H49.2147C49.0388 43.8597 48.8967 43.7177 48.8967 43.5417C48.8967 43.3658 49.0388 43.2237 49.2147 43.2237H66.215C66.391 43.2237 66.533 43.3658 66.533 43.5417C66.533 43.7177 66.391 43.8597 66.215 43.8597ZM59.4999 48.4538H49.2147C49.0388 48.4538 48.8967 48.3117 48.8967 48.1358C48.8967 47.9598 49.0388 47.8178 49.2147 47.8178H59.4999C59.6759 47.8178 59.8179 47.9598 59.8179 48.1358C59.8179 48.3117 59.6759 48.4538 59.4999 48.4538Z" fill="#472B29"/>
<path d="M49.7946 55.5548C49.4755 55.5548 49.2137 55.2941 49.2137 54.974V52.7904C49.2137 52.4713 49.4744 52.2095 49.7946 52.2095C50.1136 52.2095 50.3754 52.4702 50.3754 52.7904V54.974C50.3754 55.293 50.1136 55.5548 49.7946 55.5548Z" fill="#E1E0D8"/>
<path d="M49.7946 55.7669C49.3578 55.7669 49.0017 55.4108 49.0017 54.974V52.7904C49.0017 52.3537 49.3578 51.9976 49.7946 51.9976C50.2313 51.9976 50.5864 52.3537 50.5864 52.7904V54.974C50.5864 55.4108 50.2323 55.7669 49.7946 55.7669ZM49.7946 52.4226C49.5921 52.4226 49.4257 52.588 49.4257 52.7915V54.9751C49.4257 55.1776 49.591 55.344 49.7946 55.344C49.9981 55.344 50.1624 55.1786 50.1624 54.9751V52.7915C50.1624 52.588 49.9981 52.4226 49.7946 52.4226Z" fill="#472B29"/>
<path d="M52.9746 55.5548C52.6555 55.5548 52.3937 55.2941 52.3937 54.974V52.7904C52.3937 52.4713 52.6544 52.2095 52.9746 52.2095C53.2936 52.2095 53.5554 52.4702 53.5554 52.7904V54.974C53.5554 55.293 53.2936 55.5548 52.9746 55.5548Z" fill="#E1E0D8"/>
<path d="M52.9745 55.7669C52.5378 55.7669 52.1817 55.4108 52.1817 54.974V52.7904C52.1817 52.3537 52.5378 51.9976 52.9745 51.9976C53.4113 51.9976 53.7674 52.3537 53.7674 52.7904V54.974C53.7674 55.4108 53.4123 55.7669 52.9745 55.7669ZM52.9745 52.4226C52.7721 52.4226 52.6057 52.588 52.6057 52.7915V54.9751C52.6057 55.1776 52.771 55.344 52.9745 55.344C53.1781 55.344 53.3434 55.1786 53.3434 54.9751V52.7915C53.3434 52.588 53.1781 52.4226 52.9745 52.4226Z" fill="#472B29"/>
<path d="M56.1545 55.5548C55.8355 55.5548 55.5737 55.2941 55.5737 54.974V52.7904C55.5737 52.4713 55.8344 52.2095 56.1545 52.2095C56.4736 52.2095 56.7354 52.4702 56.7354 52.7904V54.974C56.7354 55.293 56.4747 55.5548 56.1545 55.5548Z" fill="#E1E0D8"/>
<path d="M56.1545 55.7669C55.7178 55.7669 55.3617 55.4108 55.3617 54.974V52.7904C55.3617 52.3537 55.7178 51.9976 56.1545 51.9976C56.5913 51.9976 56.9474 52.3537 56.9474 52.7904V54.974C56.9474 55.4108 56.5923 55.7669 56.1545 55.7669ZM56.1545 52.4226C55.9521 52.4226 55.7857 52.588 55.7857 52.7915V54.9751C55.7857 55.1776 55.951 55.344 56.1545 55.344C56.3581 55.344 56.5234 55.1786 56.5234 54.9751V52.7915C56.5234 52.588 56.3581 52.4226 56.1545 52.4226Z" fill="#472B29"/>
<path d="M59.3356 55.5548C59.0166 55.5548 58.7547 55.2941 58.7547 54.974V52.7904C58.7547 52.4713 59.0155 52.2095 59.3356 52.2095C59.6547 52.2095 59.9165 52.4702 59.9165 52.7904V54.974C59.9154 55.293 59.6547 55.5548 59.3356 55.5548Z" fill="#E1E0D8"/>
<path d="M59.3346 55.7669C58.8978 55.7669 58.5417 55.4108 58.5417 54.974V52.7904C58.5417 52.3537 58.8978 51.9976 59.3346 51.9976C59.7713 51.9976 60.1274 52.3537 60.1274 52.7904V54.974C60.1274 55.4108 59.7723 55.7669 59.3346 55.7669ZM59.3346 52.4226C59.1321 52.4226 58.9657 52.588 58.9657 52.7915V54.9751C58.9657 55.1776 59.131 55.344 59.3346 55.344C59.5381 55.344 59.7034 55.1786 59.7034 54.9751V52.7915C59.7034 52.588 59.5381 52.4226 59.3346 52.4226Z" fill="#472B29"/>
<path d="M62.5156 55.5548C62.1965 55.5548 61.9347 55.2941 61.9347 54.974V52.7904C61.9347 52.4713 62.1955 52.2095 62.5156 52.2095C62.8347 52.2095 63.0965 52.4702 63.0965 52.7904V54.974C63.0965 55.293 62.8347 55.5548 62.5156 55.5548Z" fill="#E1E0D8"/>
<path d="M62.5146 55.7669C62.0778 55.7669 61.7227 55.4108 61.7227 54.974V52.7904C61.7227 52.3537 62.0778 51.9976 62.5146 51.9976C62.9513 51.9976 63.3075 52.3537 63.3075 52.7904V54.974C63.3075 55.4108 62.9523 55.7669 62.5146 55.7669ZM62.5146 52.4226C62.3121 52.4226 62.1467 52.588 62.1467 52.7915V54.9751C62.1467 55.1776 62.311 55.344 62.5146 55.344C62.7181 55.344 62.8834 55.1786 62.8834 54.9751V52.7915C62.8834 52.588 62.7181 52.4226 62.5146 52.4226Z" fill="#472B29"/>
<path d="M65.6956 55.5548C65.3766 55.5548 65.1147 55.2941 65.1147 54.974V52.7904C65.1147 52.4713 65.3755 52.2095 65.6956 52.2095C66.0147 52.2095 66.2765 52.4702 66.2765 52.7904V54.974C66.2765 55.293 66.0147 55.5548 65.6956 55.5548Z" fill="#E1E0D8"/>
<path d="M65.6956 55.7669C65.2589 55.7669 64.9027 55.4108 64.9027 54.974V52.7904C64.9027 52.3537 65.2589 51.9976 65.6956 51.9976C66.1323 51.9976 66.4885 52.3537 66.4885 52.7904V54.974C66.4885 55.4108 66.1323 55.7669 65.6956 55.7669ZM65.6956 52.4226C65.4932 52.4226 65.3267 52.588 65.3267 52.7915V54.9751C65.3267 55.1776 65.4921 55.344 65.6956 55.344C65.8991 55.344 66.0645 55.1786 66.0645 54.9751V52.7915C66.0645 52.588 65.8991 52.4226 65.6956 52.4226Z" fill="#472B29"/>
<path d="M43.9137 14.1692H51.1524V17.1976H43.9137V14.1692Z" fill="#88AE45"/>
</svg>
