<svg xmlns="http://www.w3.org/2000/svg"  viewBox="0 0 512 512" width="64px" height="64px"><path fill="#463C4B" d="M352,496H144c-17.673,0-32-14.327-32-32V128c0-17.673,14.327-32,32-32h208c17.673,0,32,14.327,32,32v336 C384,481.673,369.673,496,352,496z"/><path fill="#D7E6F0" d="M336,496H96c-17.673,0-32-14.327-32-32V128c0-17.673,14.327-32,32-32h240c17.673,0,32,14.327,32,32v336 C368,481.673,353.673,496,336,496z"/><path fill="#23AAE6" d="M440,176c-4.418,0-8-3.582-8-8s3.582-8,8-8h8V32c0-8.837-7.163-16-16-16H272c-8.837,0-16,7.163-16,16 v128c4.418,0,8,3.582,8,8s-3.582,8-8,8v224c0,8.837,7.163,16,16,16h160c8.837,0,16-7.163,16-16V176H440z"/><path fill="#5AD7FF" d="M440,176c-4.594,0-8.284-3.873-7.983-8.533c0.275-4.252,3.996-7.467,8.257-7.467H448V32 c0-8.837-7.163-16-16-16H288v400h144c8.837,0,16-7.163,16-16V176H440z"/><path fill="#23AAE6" d="M412.116,89.14L376,67.47V40c0-4.418-3.582-8-8-8s-8,3.582-8,8v27.47l-36.116,21.67 c-3.789,2.273-5.017,7.187-2.744,10.976c2.272,3.788,7.185,5.018,10.976,2.744L360,86.13V128h-8c-4.418,0-8,3.582-8,8 s3.582,8,8,8h32c4.418,0,8-3.582,8-8s-3.582-8-8-8h-8V86.13l27.884,16.73c1.289,0.773,2.708,1.141,4.108,1.141 c2.718,0,5.368-1.385,6.868-3.885C417.133,96.327,415.905,91.413,412.116,89.14z"/><path fill="#5AD7FF" d="M280,176h8v-16h-8c-4.418,0-8,3.582-8,8v0C272,172.418,275.582,176,280,176z"/><path fill="#A5FFFF" d="M296,176h-8v-16h8c4.418,0,8,3.582,8,8v0C304,172.418,300.418,176,296,176z"/><path fill="#A5FFFF" d="M320,160h16c4.418,0,8,3.582,8,8s-3.582,8-8,8h-16c-4.418,0-8-3.582-8-8S315.582,160,320,160z"/><path fill="#A5FFFF" d="M360,160h16c4.418,0,8,3.582,8,8s-3.582,8-8,8h-16c-4.418,0-8-3.582-8-8S355.582,160,360,160z"/><path fill="#A5FFFF" d="M400,160h16c4.418,0,8,3.582,8,8s-3.582,8-8,8h-16c-4.418,0-8-3.582-8-8S395.582,160,400,160z"/><g><path fill="#D7E6F0" d="M320,496H96c-17.673,0-32-14.327-32-32V128c0-17.673,14.327-32,32-32h224c17.673,0,32,14.327,32,32v336 C352,481.673,337.673,496,320,496z"/></g><g><path fill="#555A6E" d="M304,496H96c-17.673,0-32-14.327-32-32V128c0-17.673,14.327-32,32-32h208c17.673,0,32,14.327,32,32v336 C336,481.673,321.673,496,304,496z"/></g><g><path fill="#463C4B" d="M128,384h144c8.837,0,16,7.163,16,16v0c0,8.837-7.163,16-16,16H128c-8.837,0-16-7.163-16-16v0 C112,391.163,119.163,384,128,384z"/></g><g><path fill="#FAA019" d="M200,136c-52.935,0-96,43.065-96,96s43.065,96,96,96s96-43.065,96-96S252.935,136,200,136z M200,312 c-3.809,0-9.958-6.341-15.109-20.509c-2.119-5.829-3.884-12.394-5.27-19.491h40.76c-1.386,7.098-3.151,13.663-5.27,19.491 C209.958,305.659,203.809,312,200,312z M177.242,256c-0.816-7.678-1.242-15.739-1.242-24s0.427-16.322,1.242-24h45.516 c0.816,7.678,1.242,15.739,1.242,24s-0.427,16.322-1.242,24H177.242z M120,232c0-8.359,1.294-16.42,3.683-24h37.49 c-0.779,7.86-1.173,15.938-1.173,24s0.394,16.14,1.173,24h-37.49C121.294,248.42,120,240.359,120,232z M200,152 c3.809,0,9.958,6.341,15.109,20.509c2.119,5.829,3.884,12.394,5.27,19.491h-40.76c1.386-7.098,3.151-13.663,5.27-19.491 C190.042,158.341,196.191,152,200,152z M238.827,208h37.49c2.389,7.58,3.683,15.641,3.683,24s-1.294,16.42-3.683,24h-37.49 c0.779-7.86,1.173-15.938,1.173-24S239.606,215.86,238.827,208z M269.237,192h-32.595c-2.426-13.74-6.155-26.171-11.152-35.812 C244.042,162.443,259.562,175.318,269.237,192z M174.51,156.188c-4.997,9.641-8.726,22.072-11.152,35.812h-32.595 C140.438,175.318,155.958,162.443,174.51,156.188z M130.763,272h32.595c2.426,13.74,6.155,26.171,11.152,35.812 C155.958,301.557,140.438,288.682,130.763,272z M225.49,307.812c4.997-9.641,8.726-22.072,11.152-35.812h32.595 C259.562,288.682,244.042,301.557,225.49,307.812z"/></g><g><path fill="#23AAE6" d="M408,384L408,384c-4.418,0-8-3.582-8-8V216c0-4.418,3.582-8,8-8l0,0c4.418,0,8,3.582,8,8v160 C416,380.418,412.418,384,408,384z"/></g><g><path fill="#23AAE6" d="M376,384L376,384c-4.418,0-8-3.582-8-8v-64c0-4.418,3.582-8,8-8l0,0c4.418,0,8,3.582,8,8v64 C384,380.418,380.418,384,376,384z"/></g></svg>