<svg width="85" height="53" viewBox="0 0 85 53" fill="none" xmlns="http://www.w3.org/2000/svg">
<path d="M0 0H84.8V53H0V0Z" fill="#BBDEFB"/>
<path d="M44.1667 47.7001C44.1667 48.7629 43.4628 49.4668 42.4 49.4668C41.3373 49.4668 40.6334 48.7629 40.6334 47.7001C40.6334 46.6374 41.3373 45.9334 42.4 45.9334C43.4628 45.9334 44.1667 46.6374 44.1667 47.7001ZM44.1667 42.4001C44.1667 43.4629 43.4628 44.1668 42.4 44.1668C41.3373 44.1668 40.6334 43.4629 40.6334 42.4001C40.6334 41.3374 41.3373 40.6334 42.4 40.6334C43.4628 40.6334 44.1667 41.3374 44.1667 42.4001ZM44.1667 37.1001C44.1667 38.1629 43.4628 38.8668 42.4 38.8668C41.3373 38.8668 40.6334 38.1629 40.6334 37.1001C40.6334 36.0374 41.3373 35.3334 42.4 35.3334C43.4628 35.3334 44.1667 36.0374 44.1667 37.1001ZM44.1667 31.8001C44.1667 32.8629 43.4628 33.5668 42.4 33.5668C41.3373 33.5668 40.6334 32.8629 40.6334 31.8001C40.6334 30.7374 41.3373 30.0334 42.4 30.0334C43.4628 30.0334 44.1667 30.7374 44.1667 31.8001ZM44.1667 26.5001C44.1667 27.5629 43.4628 28.2668 42.4 28.2668C41.3373 28.2668 40.6334 27.5629 40.6334 26.5001C40.6334 25.4374 41.3373 24.7334 42.4 24.7334C43.4628 24.7334 44.1667 25.4374 44.1667 26.5001ZM44.1667 21.2001C44.1667 22.2629 43.4628 22.9668 42.4 22.9668C41.3373 22.9668 40.6334 22.2629 40.6334 21.2001C40.6334 20.1374 41.3373 19.4334 42.4 19.4334C43.4628 19.4334 44.1667 20.1374 44.1667 21.2001ZM44.1667 15.9001C44.1667 16.9629 43.4628 17.6668 42.4 17.6668C41.3373 17.6668 40.6334 16.9629 40.6334 15.9001C40.6334 14.8374 41.3373 14.1334 42.4 14.1334C43.4628 14.1334 44.1667 14.8374 44.1667 15.9001ZM44.1667 10.6001C44.1667 11.6629 43.4628 12.3668 42.4 12.3668C41.3373 12.3668 40.6334 11.6629 40.6334 10.6001C40.6334 9.53735 41.3373 8.83345 42.4 8.83345C43.4628 8.83345 44.1667 9.53735 44.1667 10.6001ZM44.1667 5.30011C44.1667 6.36287 43.4628 7.06678 42.4 7.06678C41.3373 7.06678 40.6334 6.36287 40.6334 5.30011C40.6334 4.23735 41.3373 3.53345 42.4 3.53345C43.4628 3.53345 44.1667 4.23735 44.1667 5.30011Z" fill="#64B5F6"/>
<path d="M53 28.2666H75.9667V31.8H53V28.2666ZM53 35.3333H70.6667V38.8666H53V35.3333ZM53 14.1333H75.9667V17.6666H53V14.1333ZM53 21.2H70.6667V24.7333H53V21.2Z" fill="#1976D2"/>
<path d="M42.4 1.76667C43.4628 1.76667 44.1667 1.06276 44.1667 0H40.6334C40.6334 1.06276 41.3373 1.76667 42.4 1.76667ZM42.4 51.2333C41.3373 51.2333 40.6334 51.9372 40.6334 53H44.1667C44.1667 51.9372 43.4628 51.2333 42.4 51.2333Z" fill="#64B5F6"/>
<path d="M24.7333 11.4836C24.7333 13.9541 22.7872 15.9002 20.3167 15.9002C17.8461 15.9002 15.9 13.9541 15.9 11.4836C15.9 9.01299 17.8461 7.06689 20.3167 7.06689C22.7872 7.06689 24.7333 9.01299 24.7333 11.4836Z" fill="#FFAAA7"/>
<path d="M28.2666 21.7315C28.2666 21.7315 26.148 17.6667 20.3166 17.6667C14.4853 17.6667 12.3666 21.7315 12.3666 21.7315V24.7334H28.2666V21.7315Z" fill="#FFAAA7"/>
<path d="M28.2666 38.8668C28.2666 40.2815 27.0314 41.5168 25.6166 41.5168H15.0166C13.6019 41.5168 12.3666 40.2815 12.3666 38.8668V37.9834C12.3666 36.5687 14.6647 30.0334 15.9 30.0334H24.7333C25.7961 30.0334 28.2666 36.5687 28.2666 37.9834V38.8668Z" fill="#E3F2FD"/>
<path d="M25.6167 43.2833H15.0167C12.5461 43.2833 10.6 41.3372 10.6 38.8666V37.9833C10.6 37.0999 12.7186 28.2666 15.9 28.2666H24.7333C27.9147 28.2666 30.0333 37.0999 30.0333 37.9833V38.8666C30.0333 41.3372 28.0872 43.2833 25.6167 43.2833ZM16.4314 31.7999C15.5481 33.0352 14.1333 36.9205 14.1333 37.9833V38.8666C14.1333 39.398 14.4853 39.7499 15.0167 39.7499H25.6167C26.1481 39.7499 26.5 39.398 26.5 38.8666V37.9833C26.5 36.9205 24.9128 33.0352 24.202 31.7999H16.4314Z" fill="#525252"/>
<path d="M14.1333 44.6978C14.1333 45.4017 13.602 45.9331 12.8981 45.9331H11.8353C11.1314 45.9331 10.6 45.4017 10.6 44.6978V41.1645C10.6 40.4537 11.1314 39.9292 11.8353 39.9292H13.0706C13.602 40.1017 14.1333 40.6331 14.1333 41.1645V44.6978ZM30.0333 44.6978C30.0333 45.4017 29.502 45.9331 28.7981 45.9331H27.5628C26.852 45.9331 26.3206 45.4017 26.3206 44.6978V41.1645C26.3206 40.4537 26.852 39.9292 27.5628 39.9292H28.7981C29.502 39.9292 30.0333 40.4537 30.0333 41.1645V44.6978Z" fill="#455A64"/>
<path d="M30.0333 37.9832C30.0333 37.4518 29.6814 37.0999 29.15 37.0999H11.4833C10.952 37.0999 10.6 37.4518 10.6 37.9832V43.2832C10.6 43.8146 10.952 44.1665 11.4833 44.1665H29.15C29.6814 44.1665 30.0333 43.8146 30.0333 43.2832V37.9832Z" fill="#525252"/>
<path d="M31.8 37.6313C31.8 38.3352 31.2686 38.8666 30.5647 38.8666H10.0686C9.36472 38.8666 8.83334 38.3352 8.83334 37.6313V36.396C8.83334 35.8646 9.36472 35.3333 10.0686 35.3333H30.7372C31.4481 35.3333 31.9794 35.8646 31.9794 36.5685V37.6313H31.8Z" fill="#525252"/>
<path d="M15.9 38.8665C15.9 39.9293 15.1961 40.6332 14.1333 40.6332C13.0705 40.6332 12.3666 39.9293 12.3666 38.8665C12.3666 37.8038 13.0705 37.0999 14.1333 37.0999C15.1961 37.0999 15.9 37.8038 15.9 38.8665ZM28.2666 38.8665C28.2666 39.9293 27.5627 40.6332 26.5 40.6332C25.4372 40.6332 24.7333 39.9293 24.7333 38.8665C24.7333 37.8038 25.4372 37.0999 26.5 37.0999C27.5627 37.0999 28.2666 37.8038 28.2666 38.8665Z" fill="#FFEB3B"/>
</svg>
